<svg xmlns="http://www.w3.org/2000/svg" width="130" height="25" viewBox="0 0 130 25" fill="none">
  <g clip-path="url(#clip0_555_18738)">
    <mask id="mask0_555_18738" style="mask-type:luminance" maskUnits="userSpaceOnUse" x="0" y="0" width="130" height="25">
      <path d="M129.136 0H0V24.3538H129.136V0Z" fill="white"/>
    </mask>
    <g mask="url(#mask0_555_18738)">
      <path d="M35.7872 0.018702C39.3313 0.018702 42.8767 -0.032546 46.4182 0.032454C49.9099 0.096204 51.1777 2.1137 49.4694 4.92996C45.9903 10.6725 42.4591 16.3883 38.876 22.0775C37.0133 25.0325 34.5476 25.0175 32.6889 22.0687C29.1488 16.4554 25.6468 10.8216 22.1829 5.16745C20.3027 2.09495 21.561 0.132454 25.4288 0.0562043C28.8802 -0.0112957 32.3344 0.0424524 35.7872 0.0424524V0.018702ZM14.4339 24.245C17.8866 24.245 21.3408 24.2987 24.7922 24.23C28.6614 24.1537 29.917 22.1925 28.0395 19.1187C24.5827 13.4595 21.0807 7.82621 17.5335 2.2187C15.6734 -0.730047 13.2077 -0.746294 11.345 2.20996C7.76376 7.89746 4.23263 13.6129 0.751638 19.3562C-0.948568 22.1737 0.316515 24.19 3.80288 24.255C7.34565 24.32 10.8897 24.27 14.4339 24.27V24.2462" fill="white"/>
      <path d="M63.4015 6.76643L69.4234 23.6302C69.5026 23.8802 69.41 24.0052 69.1401 24.0052H64.7083C64.6176 24.0082 64.5286 23.9827 64.4555 23.9328C64.3823 23.8829 64.3295 23.8115 64.3054 23.7302L63.0685 19.9802H56.5L55.3181 23.7427C55.2987 23.823 55.2483 23.894 55.1766 23.9423C55.1049 23.9906 55.0169 24.013 54.9286 24.0052H50.5505C50.2631 24.0052 50.1647 23.8802 50.2551 23.6302L56.4596 6.76768C56.4814 6.68848 56.5323 6.61886 56.6035 6.57091C56.6746 6.52297 56.7615 6.49971 56.8491 6.50518H63.0135C63.1008 6.50001 63.1874 6.52341 63.2583 6.57133C63.3291 6.61926 63.3798 6.6887 63.4015 6.76768M59.6962 9.76768L57.628 16.3677H61.884L59.6962 9.76768Z" fill="white"/>
      <path d="M84.607 6.82855L84.4593 15.5911L84.607 23.6786C84.6138 23.7227 84.6094 23.7677 84.5942 23.81C84.579 23.8523 84.5535 23.8907 84.5197 23.9222C84.4857 23.9537 84.4445 23.9775 84.399 23.9916C84.3536 24.0057 84.3053 24.0098 84.2578 24.0036H80.1215C79.8892 24.0036 79.7723 23.8911 79.7723 23.6661L79.826 22.5661C79.3492 23.0965 78.7533 23.5231 78.0802 23.8161C77.3499 24.1199 76.5566 24.2698 75.7568 24.2548C74.4595 24.2548 73.3628 23.9606 72.4665 23.3723C71.5605 22.7711 70.8552 21.9439 70.432 20.9861C69.9571 19.9144 69.7217 18.7639 69.7403 17.6048C69.7234 16.4369 69.9849 15.28 70.5058 14.2173C70.9796 13.2413 71.7263 12.4016 72.668 11.7861C73.5991 11.1811 74.7004 10.879 75.9717 10.8798C76.7072 10.8676 77.4379 10.993 78.1204 11.2486C78.7451 11.4896 79.303 11.8593 79.7522 12.3298L79.6851 6.8298C79.6783 6.78578 79.6827 6.74092 79.6979 6.69874C79.7129 6.65657 79.7384 6.61823 79.7721 6.58673C79.8057 6.55523 79.8469 6.53144 79.8921 6.51723C79.9373 6.50301 79.9856 6.49876 80.0328 6.5048H84.2632C84.3107 6.49854 84.3589 6.50264 84.4044 6.51676C84.4498 6.53088 84.4911 6.55464 84.5249 6.58616C84.5589 6.61768 84.5843 6.6561 84.5996 6.69839C84.6148 6.74067 84.6192 6.78566 84.6124 6.8298M77.2529 21.3298C78.0855 21.3298 78.7279 21.0361 79.1801 20.4486C79.6322 19.8611 79.8628 18.9298 79.8717 17.6548C79.8905 16.3715 79.6845 15.4069 79.2539 14.7611C78.8233 14.1152 78.1876 13.7919 77.3469 13.7911C76.8243 13.7661 76.3082 13.9072 75.883 14.1911C75.49 14.4661 75.1901 14.8827 74.9833 15.4411C74.7591 16.1166 74.6548 16.8217 74.6744 17.5286C74.6744 18.4111 74.7729 19.134 74.9698 19.6973C75.1668 20.2606 75.4578 20.6752 75.8428 20.9411C76.2526 21.214 76.7494 21.3505 77.2529 21.3286" fill="white"/>
      <path d="M90.0735 23.8275L85.6551 11.505C85.5664 11.255 85.6551 11.13 85.9371 11.13H90.5435C90.6334 11.1232 90.7228 11.1475 90.7947 11.1982C90.8664 11.249 90.9158 11.3226 90.933 11.405L93.3906 20.2675L96.1571 11.3925C96.1787 11.3107 96.2315 11.239 96.3056 11.1907C96.3796 11.1425 96.4701 11.1209 96.56 11.13H100.468C100.745 11.13 100.839 11.255 100.75 11.505L96.3317 23.8287C96.3079 23.9093 96.2547 23.9796 96.1811 24.0276C96.1075 24.0755 96.0183 24.098 95.9288 24.0912H90.4495C90.3636 24.0954 90.279 24.0714 90.2103 24.0234C90.1416 23.9755 90.0931 23.9066 90.0735 23.8287" fill="white"/>
      <path d="M108.148 24.3538C106.59 24.3538 105.263 24.0784 104.166 23.5276C103.092 22.9993 102.213 22.1833 101.643 21.1851C101.056 20.1726 100.763 18.9788 100.762 17.6038C100.761 16.2288 101.054 15.0288 101.643 14.0038C102.212 12.9949 103.09 12.166 104.166 11.6226C105.263 11.0601 106.59 10.7788 108.148 10.7788C109.706 10.7788 111.031 11.0538 112.123 11.6038C113.191 12.1301 114.061 12.945 114.621 13.9413C115.195 14.9488 115.48 16.1405 115.48 17.5163C115.48 18.8921 115.195 20.0921 114.621 21.1163C114.065 22.1261 113.197 22.958 112.13 23.5051C111.038 24.0709 109.713 24.3542 108.155 24.3551M108.155 21.3801C108.634 21.3968 109.107 21.2649 109.498 21.0051C109.847 20.7551 110.109 20.3571 110.284 19.8113C110.458 19.2655 110.548 18.528 110.552 17.5988C110.552 16.6896 110.467 15.9501 110.297 15.3801C110.127 14.8101 109.862 14.3934 109.505 14.1301C109.109 13.8567 108.626 13.7177 108.135 13.7363C107.63 13.723 107.136 13.8733 106.738 14.1613C106.38 14.4363 106.116 14.8571 105.946 15.4238C105.775 15.9905 105.691 16.728 105.692 17.6363C105.692 18.5438 105.781 19.2709 105.96 19.8176C106.139 20.3642 106.412 20.7601 106.78 21.0051C107.186 21.2637 107.671 21.3951 108.163 21.3801" fill="white"/>
      <path d="M119.59 24.005H115.414C115.362 24.0096 115.311 24.0017 115.263 23.9819C115.216 23.9622 115.175 23.9314 115.145 23.8925C115.12 23.8487 115.111 23.7992 115.117 23.7503C115.123 23.7013 115.144 23.6552 115.178 23.6175L118.978 17.2925L115.366 11.5175C115.333 11.4782 115.313 11.431 115.306 11.3813C115.301 11.3316 115.309 11.2813 115.333 11.2362C115.368 11.1971 115.412 11.1669 115.462 11.1483C115.513 11.1297 115.567 11.1234 115.621 11.13H120.121C120.21 11.1256 120.298 11.1474 120.372 11.1923C120.447 11.2372 120.504 11.3029 120.536 11.38L122.39 15.0175L124.176 11.3675C124.205 11.2916 124.26 11.2268 124.333 11.1838C124.406 11.1407 124.493 11.1217 124.579 11.13H128.635C128.687 11.124 128.739 11.1307 128.788 11.1493C128.836 11.1679 128.878 11.1979 128.91 11.2362C128.935 11.2804 128.946 11.3299 128.942 11.3794C128.938 11.429 128.921 11.4767 128.89 11.5175L125.344 17.38L129.078 23.6175C129.112 23.6552 129.134 23.7013 129.14 23.7503C129.145 23.7992 129.136 23.8487 129.112 23.8925C129.081 23.9324 129.039 23.9638 128.991 23.9836C128.942 24.0034 128.889 24.0107 128.836 24.005H124.189C124.104 24.0069 124.022 23.9837 123.952 23.9388C123.882 23.8939 123.828 23.8296 123.8 23.755L121.933 20.08L120.013 23.755C119.979 23.8308 119.921 23.8952 119.847 23.9398C119.772 23.9844 119.685 24.0072 119.596 24.005" fill="white"/>
    </g>
  </g>
  <defs>
    <clipPath id="clip0_555_18738">
      <rect width="130" height="25" fill="white"/>
    </clipPath>
  </defs>
</svg>