<svg width="65" height="60" viewBox="0 0 65 60" fill="none" xmlns="http://www.w3.org/2000/svg">
<path d="M56.875 0.75H8.125C5.97081 0.752258 3.9055 1.60901 2.38225 3.13225C0.859008 4.6555 0.00225835 6.72081 0 8.875V41.375C0.00200068 43.5293 0.858668 45.5947 2.38197 47.118C3.90527 48.6413 5.97073 49.498 8.125 49.5H24.1617C23.703 51.781 22.3336 54.1187 19.976 56.476C19.7488 56.7033 19.5941 56.9928 19.5314 57.308C19.4687 57.6232 19.5009 57.9499 19.6239 58.2468C19.7468 58.5437 19.9551 58.7975 20.2223 58.9761C20.4895 59.1546 20.8036 59.25 21.125 59.25H43.875C44.1964 59.25 44.5105 59.1546 44.7777 58.9761C45.0449 58.7975 45.2532 58.5437 45.3761 58.2468C45.4991 57.9499 45.5313 57.6232 45.4686 57.308C45.4059 56.9928 45.2512 56.7033 45.024 56.476C42.6666 54.1187 41.297 51.781 40.8383 49.5H56.875C59.0293 49.498 61.0947 48.6413 62.618 47.118C64.1413 45.5947 64.998 43.5293 65 41.375V8.875C64.9977 6.72081 64.141 4.6555 62.6178 3.13225C61.0945 1.60901 59.0292 0.752258 56.875 0.75ZM8.125 4H56.875C58.1675 4.00142 59.4066 4.51549 60.3206 5.42942C61.2345 6.34335 61.7486 7.58251 61.75 8.875V39.75H3.25V8.875C3.25142 7.58251 3.76549 6.34335 4.67942 5.42942C5.59335 4.51549 6.83251 4.00142 8.125 4ZM40.3235 56H24.6765C26.1339 54.0986 27.0965 51.8651 27.4778 49.5H37.5222C37.9035 51.8651 38.8661 54.0986 40.3235 56ZM56.875 46.25H8.125C7.1201 46.2469 6.14078 45.9329 5.3215 45.351C4.50223 44.7691 3.88317 43.9478 3.54932 43H61.4507C61.1168 43.9478 60.4978 44.7691 59.6785 45.351C58.8592 45.9329 57.8799 46.2469 56.875 46.25Z" fill="#17374C"/>
<path d="M16.25 31.625C16.4634 31.6251 16.6748 31.5832 16.872 31.5016C17.0692 31.4199 17.2484 31.3003 17.3993 31.1493C17.5503 30.9984 17.6699 30.8192 17.7516 30.622C17.8332 30.4248 17.8751 30.2134 17.875 30V25.125H24.375V30C24.375 30.431 24.5462 30.8443 24.851 31.149C25.1557 31.4538 25.569 31.625 26 31.625C26.431 31.625 26.8443 31.4538 27.149 31.149C27.4538 30.8443 27.625 30.431 27.625 30V18.625C27.625 16.9011 26.9402 15.2478 25.7212 14.0288C24.5022 12.8098 22.8489 12.125 21.125 12.125C19.4011 12.125 17.7478 12.8098 16.5288 14.0288C15.3098 15.2478 14.625 16.9011 14.625 18.625V30C14.6249 30.2134 14.6668 30.4248 14.7484 30.622C14.8301 30.8192 14.9497 30.9984 15.1007 31.1493C15.2516 31.3003 15.4308 31.4199 15.628 31.5016C15.8252 31.5832 16.0366 31.6251 16.25 31.625ZM21.125 15.375C21.9867 15.3759 22.8128 15.7185 23.4221 16.3279C24.0315 16.9372 24.3741 17.7633 24.375 18.625V21.875H17.875V18.625C17.8759 17.7633 18.2185 16.9372 18.8279 16.3279C19.4372 15.7185 20.2633 15.3759 21.125 15.375Z" fill="#FF972C"/>
<path d="M32.5 31.625C32.7134 31.6251 32.9248 31.5832 33.122 31.5016C33.3192 31.4199 33.4984 31.3003 33.6493 31.1493C33.8003 30.9984 33.9199 30.8192 34.0016 30.622C34.0832 30.4248 34.1251 30.2134 34.125 30V25.125H37.375C39.0989 25.125 40.7522 24.4402 41.9712 23.2212C43.1902 22.0022 43.875 20.3489 43.875 18.625C43.875 16.9011 43.1902 15.2478 41.9712 14.0288C40.7522 12.8098 39.0989 12.125 37.375 12.125H32.5C32.2866 12.1249 32.0752 12.1668 31.878 12.2484C31.6808 12.3301 31.5016 12.4497 31.3507 12.6007C31.1997 12.7516 31.0801 12.9308 30.9984 13.128C30.9168 13.3252 30.8749 13.5366 30.875 13.75V30C30.8749 30.2134 30.9168 30.4248 30.9984 30.622C31.0801 30.8192 31.1997 30.9984 31.3507 31.1493C31.5016 31.3003 31.6808 31.4199 31.878 31.5016C32.0752 31.5832 32.2866 31.6251 32.5 31.625ZM34.125 15.375H37.375C38.237 15.375 39.0636 15.7174 39.6731 16.3269C40.2826 16.9364 40.625 17.763 40.625 18.625C40.625 19.487 40.2826 20.3136 39.6731 20.9231C39.0636 21.5326 38.237 21.875 37.375 21.875H34.125V15.375Z" fill="#FF972C"/>
<path d="M48.75 31.625C48.9634 31.6251 49.1748 31.5832 49.372 31.5016C49.5692 31.4199 49.7484 31.3003 49.8993 31.1493C50.0503 30.9984 50.1699 30.8192 50.2516 30.622C50.3332 30.4248 50.3751 30.2134 50.375 30V13.75C50.375 13.319 50.2038 12.9057 49.899 12.601C49.5943 12.2962 49.181 12.125 48.75 12.125C48.319 12.125 47.9057 12.2962 47.601 12.601C47.2962 12.9057 47.125 13.319 47.125 13.75V30C47.1249 30.2134 47.1668 30.4248 47.2484 30.622C47.3301 30.8192 47.4497 30.9984 47.6007 31.1493C47.7516 31.3003 47.9308 31.4199 48.128 31.5016C48.3252 31.5832 48.5366 31.6251 48.75 31.625Z" fill="#FF972C"/>
</svg>
