<svg xmlns="http://www.w3.org/2000/svg" width="128" height="121" viewBox="0 0 128 121" fill="none">
  <path d="M123.959 45.6931C121.548 35.8401 106.635 32.7443 100.078 25.8829C93.3136 18.828 90.7164 3.90709 81.3322 1.1536C72.2308 -1.48826 62.0653 9.50337 52.1899 11.9071C42.3146 14.3108 28.2048 9.2057 21.3583 15.7471C14.2885 22.4969 18.8653 36.9415 16.149 46.3108C13.4401 55.3899 1.63734 65.0122 4.04106 74.8652C6.44479 84.7183 21.3657 87.8141 27.922 94.6755C34.6866 101.73 37.2839 116.651 46.668 119.405C55.7694 122.047 65.935 111.055 75.8178 108.651C85.7006 106.248 99.7955 111.353 106.642 104.811C113.712 98.0615 109.135 83.6169 111.851 74.2476C114.56 65.1685 126.363 55.5462 123.959 45.6931Z" fill="white"/>
  <path d="M127.256 120.558H0.744186C0.546816 120.558 0.357529 120.48 0.217967 120.34C0.0784051 120.201 0 120.011 0 119.814C0 119.617 0.0784051 119.427 0.217967 119.288C0.357529 119.148 0.546816 119.07 0.744186 119.07H127.256C127.453 119.07 127.642 119.148 127.782 119.288C127.922 119.427 128 119.617 128 119.814C128 120.011 127.922 120.201 127.782 120.34C127.642 120.48 127.453 120.558 127.256 120.558Z" fill="#A09CAD"/>
  <path d="M79.6279 109.396H48.3721V119.814H79.6279V109.396Z" fill="#FF972C"/>
  <path d="M79.6279 120.558H48.3721C48.1747 120.558 47.9855 120.48 47.8459 120.34C47.7063 120.201 47.6279 120.012 47.6279 119.814V109.396C47.6279 109.198 47.7063 109.009 47.8459 108.869C47.9855 108.73 48.1747 108.651 48.3721 108.651H79.6279C79.8253 108.651 80.0146 108.73 80.1541 108.869C80.2937 109.009 80.3721 109.198 80.3721 109.396V119.814C80.3721 120.012 80.2937 120.201 80.1541 120.34C80.0146 120.48 79.8253 120.558 79.6279 120.558ZM49.1163 119.07H78.8837V110.14H49.1163V119.07Z" fill="#34234D"/>
  <path d="M15.6279 98.9771H112.372V105.675C112.372 106.662 111.98 107.608 111.282 108.306C110.584 109.004 109.638 109.396 108.651 109.396H19.3489C18.362 109.396 17.4156 109.004 16.7178 108.306C16.02 107.608 15.6279 106.662 15.6279 105.675V98.9771Z" fill="#FF972C"/>
  <path d="M112.372 105.675L15.6279 101.954V98.9771H112.372V105.675Z" fill="#FCE0AE"/>
  <path d="M108.651 110.14H95.2559C95.0585 110.14 94.8692 110.061 94.7297 109.922C94.5901 109.782 94.5117 109.593 94.5117 109.396C94.5117 109.198 94.5901 109.009 94.7297 108.869C94.8692 108.73 95.0585 108.652 95.2559 108.652H108.651C109.441 108.652 110.198 108.338 110.756 107.78C111.314 107.221 111.628 106.464 111.628 105.675V99.7213H16.3722V105.675C16.3722 106.464 16.6858 107.221 17.244 107.78C17.8023 108.338 18.5594 108.652 19.3489 108.652H90.7908C90.9881 108.652 91.1774 108.73 91.317 108.869C91.4566 109.009 91.535 109.198 91.535 109.396C91.535 109.593 91.4566 109.782 91.317 109.922C91.1774 110.061 90.9881 110.14 90.7908 110.14H19.3489C18.1647 110.14 17.029 109.669 16.1916 108.832C15.3542 107.995 14.8838 106.859 14.8838 105.675V98.9771C14.8838 98.7797 14.9622 98.5904 15.1018 98.4509C15.2413 98.3113 15.4306 98.2329 15.628 98.2329H112.372C112.57 98.2329 112.759 98.3113 112.898 98.4509C113.038 98.5904 113.116 98.7797 113.116 98.9771V105.675C113.116 106.859 112.646 107.995 111.809 108.832C110.971 109.669 109.835 110.14 108.651 110.14Z" fill="#34234D"/>
  <path d="M19.3489 23.0698H108.651C109.638 23.0698 110.584 23.4618 111.282 24.1597C111.98 24.8575 112.372 25.8039 112.372 26.7908V98.9768H15.6279V26.7908C15.6279 25.8039 16.02 24.8575 16.7178 24.1597C17.4156 23.4618 18.362 23.0698 19.3489 23.0698Z" fill="#EDEDED"/>
  <path d="M104.186 90.7908L15.6279 94.5117V26.7908C15.6279 25.8039 16.02 24.8575 16.7178 24.1597C17.4156 23.4618 18.362 23.0698 19.3489 23.0698H107.907L104.186 90.7908Z" fill="white"/>
  <path d="M15.628 84.8373C15.4306 84.8373 15.2413 84.7589 15.1018 84.6193C14.9622 84.4798 14.8838 84.2905 14.8838 84.0931V26.7908C14.8838 25.6066 15.3542 24.4709 16.1916 23.6335C17.029 22.7961 18.1647 22.3257 19.3489 22.3257H108.651C109.835 22.3257 110.971 22.7961 111.809 23.6335C112.646 24.4709 113.116 25.6066 113.116 26.7908V59.535C113.116 59.7324 113.038 59.9216 112.898 60.0612C112.759 60.2008 112.57 60.2792 112.372 60.2792C112.175 60.2792 111.986 60.2008 111.846 60.0612C111.706 59.9216 111.628 59.7324 111.628 59.535V26.7908C111.628 26.0013 111.314 25.2442 110.756 24.6859C110.198 24.1277 109.441 23.8141 108.651 23.8141H19.3489C18.5594 23.8141 17.8023 24.1277 17.244 24.6859C16.6858 25.2442 16.3722 26.0013 16.3722 26.7908V84.0931C16.3722 84.2905 16.2938 84.4798 16.1542 84.6193C16.0146 84.7589 15.8253 84.8373 15.628 84.8373Z" fill="#34234D"/>
  <path d="M112.372 99.721H15.628C15.4306 99.721 15.2413 99.6426 15.1018 99.503C14.9622 99.3634 14.8838 99.1742 14.8838 98.9768V88.5582C14.8838 88.3608 14.9622 88.1715 15.1018 88.032C15.2413 87.8924 15.4306 87.814 15.628 87.814C15.8253 87.814 16.0146 87.8924 16.1542 88.032C16.2938 88.1715 16.3722 88.3608 16.3722 88.5582V98.2326H111.628V64C111.628 63.8027 111.706 63.6134 111.846 63.4738C111.986 63.3343 112.175 63.2559 112.372 63.2559C112.57 63.2559 112.759 63.3343 112.898 63.4738C113.038 63.6134 113.116 63.8027 113.116 64V98.9768C113.116 99.1742 113.038 99.3634 112.898 99.503C112.759 99.6426 112.57 99.721 112.372 99.721Z" fill="#34234D"/>
  <path d="M93.0231 120.558H34.9766C34.7792 120.558 34.59 120.48 34.4504 120.34C34.3108 120.201 34.2324 120.011 34.2324 119.814C34.2324 119.617 34.3108 119.427 34.4504 119.288C34.59 119.148 34.7792 119.07 34.9766 119.07H93.0231C93.2205 119.07 93.4098 119.148 93.5493 119.288C93.6889 119.427 93.7673 119.617 93.7673 119.814C93.7673 120.011 93.6889 120.201 93.5493 120.34C93.4098 120.48 93.2205 120.558 93.0231 120.558Z" fill="#34234D"/>
  <path d="M68.465 105.674H59.5348C59.14 105.674 58.7614 105.518 58.4823 105.239C58.2032 104.959 58.0464 104.581 58.0464 104.186C58.0464 103.791 58.2032 103.413 58.4823 103.134C58.7614 102.855 59.14 102.698 59.5348 102.698H68.465C68.8597 102.698 69.2383 102.855 69.5174 103.134C69.7966 103.413 69.9534 103.791 69.9534 104.186C69.9534 104.581 69.7966 104.959 69.5174 105.239C69.2383 105.518 68.8597 105.674 68.465 105.674Z" fill="white"/>
  <path d="M107.907 34.9767H72.9302C72.7329 34.9767 72.5436 34.8982 72.404 34.7587C72.2644 34.6191 72.186 34.4298 72.186 34.2325C72.186 34.0351 72.2644 33.8458 72.404 33.7062C72.5436 33.5667 72.7329 33.4883 72.9302 33.4883H107.907C108.104 33.4883 108.294 33.5667 108.433 33.7062C108.573 33.8458 108.651 34.0351 108.651 34.2325C108.651 34.4298 108.573 34.6191 108.433 34.7587C108.294 34.8982 108.104 34.9767 107.907 34.9767Z" fill="#A09CAD"/>
  <path d="M68.4654 34.9767H20.0933C19.8959 34.9767 19.7066 34.8982 19.5671 34.7587C19.4275 34.6191 19.3491 34.4298 19.3491 34.2325C19.3491 34.0351 19.4275 33.8458 19.5671 33.7062C19.7066 33.5667 19.8959 33.4883 20.0933 33.4883H68.4654C68.6628 33.4883 68.8521 33.5667 68.9916 33.7062C69.1312 33.8458 69.2096 34.0351 69.2096 34.2325C69.2096 34.4298 69.1312 34.6191 68.9916 34.7587C68.8521 34.8982 68.6628 34.9767 68.4654 34.9767Z" fill="#A09CAD"/>
  <path d="M107.907 88.5582H20.0933C19.8959 88.5582 19.7066 88.4798 19.5671 88.3402C19.4275 88.2007 19.3491 88.0114 19.3491 87.814C19.3491 87.6166 19.4275 87.4274 19.5671 87.2878C19.7066 87.1482 19.8959 87.0698 20.0933 87.0698H107.907C108.105 87.0698 108.294 87.1482 108.433 87.2878C108.573 87.4274 108.651 87.6166 108.651 87.814C108.651 88.0114 108.573 88.2007 108.433 88.3402C108.294 88.4798 108.105 88.5582 107.907 88.5582Z" fill="#A09CAD"/>
  <path d="M26.7906 95.2561C26.5932 95.2561 26.4039 95.1777 26.2644 95.0382C26.1248 94.8986 26.0464 94.7093 26.0464 94.5119V27.5352C26.0464 27.3378 26.1248 27.1485 26.2644 27.009C26.4039 26.8694 26.5932 26.791 26.7906 26.791C26.9879 26.791 27.1772 26.8694 27.3168 27.009C27.4564 27.1485 27.5348 27.3378 27.5348 27.5352V94.5119C27.5348 94.7093 27.4564 94.8986 27.3168 95.0382C27.1772 95.1777 26.9879 95.2561 26.7906 95.2561Z" fill="#A09CAD"/>
  <path d="M101.21 95.2561C101.012 95.2561 100.823 95.1777 100.683 95.0382C100.544 94.8986 100.465 94.7093 100.465 94.5119V27.5352C100.465 27.3378 100.544 27.1485 100.683 27.009C100.823 26.8694 101.012 26.791 101.21 26.791C101.407 26.791 101.596 26.8694 101.736 27.009C101.875 27.1485 101.954 27.3378 101.954 27.5352V94.5119C101.954 94.7093 101.875 94.8986 101.736 95.0382C101.596 95.1777 101.407 95.2561 101.21 95.2561Z" fill="#A09CAD"/>
  <path d="M29.0233 84.0933H24.5582C23.7362 84.0933 23.0698 84.7596 23.0698 85.5816V90.0468C23.0698 90.8688 23.7362 91.5351 24.5582 91.5351H29.0233C29.8453 91.5351 30.5117 90.8688 30.5117 90.0468V85.5816C30.5117 84.7596 29.8453 84.0933 29.0233 84.0933Z" fill="white"/>
  <path d="M29.0234 92.2794H24.5582C23.9661 92.2794 23.3983 92.0441 22.9796 91.6255C22.5609 91.2068 22.3257 90.6389 22.3257 90.0468V85.5817C22.3257 84.9896 22.5609 84.4217 22.9796 84.003C23.3983 83.5843 23.9661 83.3491 24.5582 83.3491H29.0234C29.6155 83.3491 30.1833 83.5843 30.602 84.003C31.0207 84.4217 31.2559 84.9896 31.2559 85.5817V90.0468C31.2559 90.6389 31.0207 91.2068 30.602 91.6255C30.1833 92.0441 29.6155 92.2794 29.0234 92.2794ZM24.5582 84.8375C24.3609 84.8375 24.1716 84.9159 24.032 85.0555C23.8925 85.195 23.8141 85.3843 23.8141 85.5817V90.0468C23.8141 90.2442 23.8925 90.4335 24.032 90.573C24.1716 90.7126 24.3609 90.791 24.5582 90.791H29.0234C29.2207 90.791 29.41 90.7126 29.5496 90.573C29.6891 90.4335 29.7675 90.2442 29.7675 90.0468V85.5817C29.7675 85.3843 29.6891 85.195 29.5496 85.0555C29.41 84.9159 29.2207 84.8375 29.0234 84.8375H24.5582Z" fill="#A09CAD"/>
  <path d="M29.0233 30.5117H24.5582C23.7362 30.5117 23.0698 31.1781 23.0698 32.0001V36.4652C23.0698 37.2872 23.7362 37.9536 24.5582 37.9536H29.0233C29.8453 37.9536 30.5117 37.2872 30.5117 36.4652V32.0001C30.5117 31.1781 29.8453 30.5117 29.0233 30.5117Z" fill="white"/>
  <path d="M29.0234 38.6978H24.5582C23.9661 38.6978 23.3983 38.4626 22.9796 38.0439C22.5609 37.6252 22.3257 37.0574 22.3257 36.4653V32.0001C22.3257 31.408 22.5609 30.8402 22.9796 30.4215C23.3983 30.0028 23.9661 29.7676 24.5582 29.7676H29.0234C29.6155 29.7676 30.1833 30.0028 30.602 30.4215C31.0207 30.8402 31.2559 31.408 31.2559 32.0001V36.4653C31.2559 37.0574 31.0207 37.6252 30.602 38.0439C30.1833 38.4626 29.6155 38.6978 29.0234 38.6978ZM24.5582 31.256C24.3609 31.256 24.1716 31.3344 24.032 31.4739C23.8925 31.6135 23.8141 31.8028 23.8141 32.0001V36.4653C23.8141 36.6626 23.8925 36.8519 24.032 36.9915C24.1716 37.131 24.3609 37.2094 24.5582 37.2094H29.0234C29.2207 37.2094 29.41 37.131 29.5496 36.9915C29.6891 36.8519 29.7675 36.6626 29.7675 36.4653V32.0001C29.7675 31.8028 29.6891 31.6135 29.5496 31.4739C29.41 31.3344 29.2207 31.256 29.0234 31.256H24.5582Z" fill="#A09CAD"/>
  <path d="M103.442 84.0933H98.9767C98.1546 84.0933 97.4883 84.7596 97.4883 85.5816V90.0468C97.4883 90.8688 98.1546 91.5351 98.9767 91.5351H103.442C104.264 91.5351 104.93 90.8688 104.93 90.0468V85.5816C104.93 84.7596 104.264 84.0933 103.442 84.0933Z" fill="white"/>
  <path d="M103.442 92.2794H98.9767C98.3846 92.2794 97.8167 92.0441 97.398 91.6255C96.9794 91.2068 96.7441 90.6389 96.7441 90.0468V85.5817C96.7441 84.9896 96.9794 84.4217 97.398 84.003C97.8167 83.5843 98.3846 83.3491 98.9767 83.3491H103.442C104.034 83.3491 104.602 83.5843 105.02 84.003C105.439 84.4217 105.674 84.9896 105.674 85.5817V90.0468C105.674 90.6389 105.439 91.2068 105.02 91.6255C104.602 92.0441 104.034 92.2794 103.442 92.2794ZM98.9767 84.8375C98.7793 84.8375 98.59 84.9159 98.4505 85.0555C98.3109 85.195 98.2325 85.3843 98.2325 85.5817V90.0468C98.2325 90.2442 98.3109 90.4335 98.4505 90.573C98.59 90.7126 98.7793 90.791 98.9767 90.791H103.442C103.639 90.791 103.828 90.7126 103.968 90.573C104.108 90.4335 104.186 90.2442 104.186 90.0468V85.5817C104.186 85.3843 104.108 85.195 103.968 85.0555C103.828 84.9159 103.639 84.8375 103.442 84.8375H98.9767Z" fill="#A09CAD"/>
  <path d="M103.442 30.5117H98.9767C98.1546 30.5117 97.4883 31.1781 97.4883 32.0001V36.4652C97.4883 37.2872 98.1546 37.9536 98.9767 37.9536H103.442C104.264 37.9536 104.93 37.2872 104.93 36.4652V32.0001C104.93 31.1781 104.264 30.5117 103.442 30.5117Z" fill="white"/>
  <path d="M103.442 38.6978H98.9767C98.3846 38.6978 97.8167 38.4626 97.398 38.0439C96.9794 37.6252 96.7441 37.0574 96.7441 36.4653V32.0001C96.7441 31.408 96.9794 30.8402 97.398 30.4215C97.8167 30.0028 98.3846 29.7676 98.9767 29.7676H103.442C104.034 29.7676 104.602 30.0028 105.02 30.4215C105.439 30.8402 105.674 31.408 105.674 32.0001V36.4653C105.674 37.0574 105.439 37.6252 105.02 38.0439C104.602 38.4626 104.034 38.6978 103.442 38.6978ZM98.9767 31.256C98.7793 31.256 98.59 31.3344 98.4505 31.4739C98.3109 31.6135 98.2325 31.8028 98.2325 32.0001V36.4653C98.2325 36.6626 98.3109 36.8519 98.4505 36.9915C98.59 37.131 98.7793 37.2094 98.9767 37.2094H103.442C103.639 37.2094 103.828 37.131 103.968 36.9915C104.108 36.8519 104.186 36.6626 104.186 36.4653V32.0001C104.186 31.8028 104.108 31.6135 103.968 31.4739C103.828 31.3344 103.639 31.256 103.442 31.256H98.9767Z" fill="#A09CAD"/>
  <path d="M95.2558 40.186H32.7441V81.8605H95.2558V40.186Z" fill="#2FC8F2"/>
  <path d="M82.3441 52.1377L72.7962 56.1191C72.1645 56.3812 71.481 56.4947 70.7984 56.4509C70.1158 56.407 69.4525 56.2069 68.8595 55.866L53.9758 47.3004C53.392 46.9653 52.7401 46.7664 52.0687 46.7187C51.3973 46.6711 50.7238 46.7758 50.0986 47.0251L32.7441 53.946V80.3721H95.2558V56.4837L85.9237 52.2046C85.3639 51.9471 84.757 51.8082 84.1409 51.7967C83.5249 51.7851 82.9131 51.9012 82.3441 52.1377Z" fill="#17374C"/>
  <path d="M95.2558 71.3676L84.1451 58.0913L70.7646 74.0839L77.6409 81.8606H95.2558V71.3676Z" fill="#A09CAD"/>
  <path d="M76.5845 67.1332L78.9659 71.8067L81.2207 68.7257L84.2496 74.2476L87.3752 67.4308L90.0468 70.162L91.55 66.9322L84.1454 58.0913L76.5845 67.1332Z" fill="#EDEDED"/>
  <path d="M95.2558 82.6049H64.2604C64.1181 82.6052 63.9787 82.5648 63.8586 82.4883C63.7386 82.4118 63.643 82.3024 63.5832 82.1733C63.5242 82.0454 63.5026 81.9034 63.5211 81.7638C63.5395 81.6241 63.5972 81.4926 63.6874 81.3844L83.5795 57.6077C83.6494 57.5247 83.7365 57.458 83.8349 57.4122C83.9332 57.3665 84.0404 57.3428 84.1488 57.3428C84.2573 57.3428 84.3644 57.3665 84.4628 57.4122C84.5611 57.458 84.6483 57.5247 84.7181 57.6077L95.8288 70.884C95.9414 71.0198 96.0021 71.1912 96 71.3677V81.8607C96 82.0581 95.9216 82.2474 95.782 82.3869C95.6425 82.5265 95.4532 82.6049 95.2558 82.6049ZM65.853 81.1165H94.5116V71.6356L84.1451 59.2449L65.853 81.1165Z" fill="#34234D"/>
  <path d="M52.0632 52.9189L32.7441 74.7831V81.8603H77.6409L52.0632 52.9189Z" fill="#B8B5C6"/>
  <path d="M44.2495 61.7673L46.869 68.3162L49.0718 65.0417L52.0635 71.2259L55.189 64.3869L56.9156 66.5003L59.5425 61.3803L52.0635 52.9189L44.2495 61.7673Z" fill="white"/>
  <path d="M77.6409 82.605C77.5353 82.6048 77.4308 82.5822 77.3346 82.5386C77.2384 82.4949 77.1525 82.4313 77.0828 82.3519L52.093 54.0431L33.4884 75.0664V81.8608C33.4884 82.0582 33.41 82.2474 33.2704 82.387C33.1308 82.5266 32.9416 82.605 32.7442 82.605C32.5468 82.605 32.3575 82.5266 32.218 82.387C32.0784 82.2474 32 82.0582 32 81.8608V74.7836C32.0003 74.6027 32.0664 74.4281 32.186 74.2924L51.5349 52.4282C51.6047 52.349 51.6906 52.2856 51.7868 52.2422C51.8831 52.1987 51.9874 52.1763 52.093 52.1763C52.1986 52.1763 52.303 52.1987 52.3992 52.2422C52.4954 52.2856 52.5813 52.349 52.6512 52.4282L78.2288 81.3696C78.3589 81.5177 78.4249 81.7114 78.4124 81.9081C78.3998 82.1048 78.3097 82.2886 78.1619 82.4189C78.0186 82.5456 77.832 82.6122 77.6409 82.605Z" fill="#34234D"/>
  <path d="M95.2558 82.6047H52.093C51.8957 82.6047 51.7064 82.5263 51.5668 82.3867C51.4272 82.2472 51.3488 82.0579 51.3488 81.8605C51.3488 81.6631 51.4272 81.4738 51.5668 81.3343C51.7064 81.1947 51.8957 81.1163 52.093 81.1163H94.5116V40.9303H33.4884V81.1163H47.6279C47.8253 81.1163 48.0146 81.1947 48.1541 81.3343C48.2937 81.4738 48.3721 81.6631 48.3721 81.8605C48.3721 82.0579 48.2937 82.2472 48.1541 82.3867C48.0146 82.5263 47.8253 82.6047 47.6279 82.6047H32.7442C32.5468 82.6047 32.3575 82.5263 32.218 82.3867C32.0784 82.2472 32 82.0579 32 81.8605V40.1861C32 39.9887 32.0784 39.7994 32.218 39.6599C32.3575 39.5203 32.5468 39.4419 32.7442 39.4419H95.2558C95.4532 39.4419 95.6425 39.5203 95.782 39.6599C95.9216 39.7994 96 39.9887 96 40.1861V81.8605C96 82.0579 95.9216 82.2472 95.782 82.3867C95.6425 82.5263 95.4532 82.6047 95.2558 82.6047Z" fill="#34234D"/>
  <path d="M71.3454 53.9463C73.4005 53.9463 75.0664 52.2803 75.0664 50.2253C75.0664 48.1703 73.4005 46.5044 71.3454 46.5044C69.2904 46.5044 67.6245 48.1703 67.6245 50.2253C67.6245 52.2803 69.2904 53.9463 71.3454 53.9463Z" fill="white"/>
  <path d="M42.4187 50.672H36.7256C36.5283 50.672 36.339 50.5936 36.1994 50.454C36.0599 50.3144 35.9814 50.1252 35.9814 49.9278C35.9814 49.7304 36.0599 49.5411 36.1994 49.4016C36.339 49.262 36.5283 49.1836 36.7256 49.1836H42.4187C42.616 49.1836 42.8053 49.262 42.9449 49.4016C43.0844 49.5411 43.1628 49.7304 43.1628 49.9278C43.1628 50.1252 43.0844 50.3144 42.9449 50.454C42.8053 50.5936 42.616 50.672 42.4187 50.672Z" fill="white"/>
  <path d="M46.3853 54.2364H40.6998C40.5024 54.2364 40.3131 54.158 40.1735 54.0185C40.034 53.8789 39.9556 53.6896 39.9556 53.4922C39.9556 53.2949 40.034 53.1056 40.1735 52.966C40.3131 52.8265 40.5024 52.748 40.6998 52.748H46.3853C46.5827 52.748 46.772 52.8265 46.9116 52.966C47.0511 53.1056 47.1295 53.2949 47.1295 53.4922C47.1295 53.6896 47.0511 53.8789 46.9116 54.0185C46.772 54.158 46.5827 54.2364 46.3853 54.2364Z" fill="white"/>
  <path d="M43.5426 57.7935H38.9957C38.7983 57.7935 38.609 57.7151 38.4694 57.5756C38.3299 57.436 38.2515 57.2467 38.2515 57.0494C38.2515 56.852 38.3299 56.6627 38.4694 56.5231C38.609 56.3836 38.7983 56.3052 38.9957 56.3052H43.5426C43.74 56.3052 43.9293 56.3836 44.0688 56.5231C44.2084 56.6627 44.2868 56.852 44.2868 57.0494C44.2868 57.2467 44.2084 57.436 44.0688 57.5756C43.9293 57.7151 43.74 57.7935 43.5426 57.7935Z" fill="white"/>
  <path d="M89.0046 52.7032H82.7535C82.5561 52.7032 82.3668 52.6248 82.2272 52.4852C82.0877 52.3457 82.0093 52.1564 82.0093 51.959C82.0093 51.7617 82.0877 51.5724 82.2272 51.4328C82.3668 51.2932 82.5561 51.2148 82.7535 51.2148H89.0046C89.202 51.2148 89.3913 51.2932 89.5308 51.4328C89.6704 51.5724 89.7488 51.7617 89.7488 51.959C89.7488 52.1564 89.6704 52.3457 89.5308 52.4852C89.3913 52.6248 89.202 52.7032 89.0046 52.7032Z" fill="white"/>
  <path d="M82.7536 48.0372H79.3453C79.1479 48.0372 78.9586 47.9588 78.819 47.8192C78.6795 47.6797 78.6011 47.4904 78.6011 47.293C78.6011 47.0956 78.6795 46.9064 78.819 46.7668C78.9586 46.6272 79.1479 46.5488 79.3453 46.5488H82.7536C82.951 46.5488 83.1403 46.6272 83.2798 46.7668C83.4194 46.9064 83.4978 47.0956 83.4978 47.293C83.4978 47.4904 83.4194 47.6797 83.2798 47.8192C83.1403 47.9588 82.951 48.0372 82.7536 48.0372Z" fill="white"/>
  <path d="M86.1618 44.4801H82.7535C82.5561 44.4801 82.3668 44.4017 82.2272 44.2621C82.0877 44.1225 82.0093 43.9333 82.0093 43.7359C82.0093 43.5385 82.0877 43.3492 82.2272 43.2097C82.3668 43.0701 82.5561 42.9917 82.7535 42.9917H86.1618C86.3592 42.9917 86.5485 43.0701 86.6881 43.2097C86.8276 43.3492 86.906 43.5385 86.906 43.7359C86.906 43.9333 86.8276 44.1225 86.6881 44.2621C86.5485 44.4017 86.3592 44.4801 86.1618 44.4801Z" fill="white"/>
  <path d="M78.4226 58.627H75.0142C74.8168 58.627 74.6275 58.5486 74.488 58.4091C74.3484 58.2695 74.27 58.0802 74.27 57.8829C74.27 57.6855 74.3484 57.4962 74.488 57.3566C74.6275 57.2171 74.8168 57.1387 75.0142 57.1387H78.4226C78.6199 57.1387 78.8092 57.2171 78.9488 57.3566C79.0884 57.4962 79.1668 57.6855 79.1668 57.8829C79.1668 58.0802 79.0884 58.2695 78.9488 58.4091C78.8092 58.5486 78.6199 58.627 78.4226 58.627Z" fill="white"/>
  <path d="M70.2362 61.0831H64.5953C64.3979 61.0831 64.2086 61.0047 64.069 60.8651C63.9295 60.7256 63.8511 60.5363 63.8511 60.3389C63.8511 60.1415 63.9295 59.9523 64.069 59.8127C64.2086 59.6731 64.3979 59.5947 64.5953 59.5947H70.2362C70.4336 59.5947 70.6228 59.6731 70.7624 59.8127C70.902 59.9523 70.9804 60.1415 70.9804 60.3389C70.9804 60.5363 70.902 60.7256 70.7624 60.8651C70.6228 61.0047 70.4336 61.0831 70.2362 61.0831Z" fill="white"/>
  <path d="M72.469 64.3575H68.3165C68.1191 64.3575 67.9298 64.2791 67.7902 64.1395C67.6507 64 67.5723 63.8107 67.5723 63.6133C67.5723 63.416 67.6507 63.2267 67.7902 63.0871C67.9298 62.9475 68.1191 62.8691 68.3165 62.8691H72.469C72.6664 62.8691 72.8557 62.9475 72.9952 63.0871C73.1348 63.2267 73.2132 63.416 73.2132 63.6133C73.2132 63.8107 73.1348 64 72.9952 64.1395C72.8557 64.2791 72.6664 64.3575 72.469 64.3575Z" fill="white"/>
  <path d="M58.0988 51.3863H54.6905C54.4931 51.3863 54.3038 51.3079 54.1643 51.1684C54.0247 51.0288 53.9463 50.8395 53.9463 50.6421C53.9463 50.4448 54.0247 50.2555 54.1643 50.1159C54.3038 49.9764 54.4931 49.8979 54.6905 49.8979H58.0988C58.2962 49.8979 58.4855 49.9764 58.6251 50.1159C58.7646 50.2555 58.843 50.4448 58.843 50.6421C58.843 50.8395 58.7646 51.0288 58.6251 51.1684C58.4855 51.3079 58.2962 51.3863 58.0988 51.3863Z" fill="white"/>
  <path d="M91.2744 56.2603H86.7349C86.5375 56.2603 86.3483 56.1819 86.2087 56.0424C86.0691 55.9028 85.9907 55.7135 85.9907 55.5162C85.9907 55.3188 86.0691 55.1295 86.2087 54.9899C86.3483 54.8504 86.5375 54.772 86.7349 54.772H91.2744C91.4718 54.772 91.6611 54.8504 91.8007 54.9899C91.9402 55.1295 92.0186 55.3188 92.0186 55.5162C92.0186 55.7135 91.9402 55.9028 91.8007 56.0424C91.6611 56.1819 91.4718 56.2603 91.2744 56.2603Z" fill="white"/>
  <path d="M58.6715 44.2643H54.1246C53.9272 44.2643 53.7379 44.1858 53.5983 44.0463C53.4588 43.9067 53.3804 43.7174 53.3804 43.5201C53.3804 43.3227 53.4588 43.1334 53.5983 42.9938C53.7379 42.8543 53.9272 42.7759 54.1246 42.7759H58.6715C58.8689 42.7759 59.0582 42.8543 59.1977 42.9938C59.3373 43.1334 59.4157 43.3227 59.4157 43.5201C59.4157 43.7174 59.3373 43.9067 59.1977 44.0463C59.0582 44.1858 58.8689 44.2643 58.6715 44.2643Z" fill="white"/>
  <path d="M60.9416 47.8214H57.5332C57.3359 47.8214 57.1466 47.743 57.007 47.6034C56.8675 47.4639 56.7891 47.2746 56.7891 47.0772C56.7891 46.8798 56.8675 46.6905 57.007 46.551C57.1466 46.4114 57.3359 46.333 57.5332 46.333H60.9416C61.139 46.333 61.3283 46.4114 61.4678 46.551C61.6074 46.6905 61.6858 46.8798 61.6858 47.0772C61.6858 47.2746 61.6074 47.4639 61.4678 47.6034C61.3283 47.743 61.139 47.8214 60.9416 47.8214Z" fill="white"/>
  <path d="M122.047 46.8839C121.948 46.8835 121.851 46.8636 121.76 46.8253C121.669 46.7869 121.587 46.731 121.518 46.6607L119.286 44.4281C119.147 44.2887 119.069 44.1001 119.069 43.9035C119.069 43.7069 119.147 43.5183 119.286 43.3788C119.355 43.3091 119.437 43.2537 119.528 43.2159C119.619 43.1781 119.716 43.1587 119.814 43.1587C119.912 43.1587 120.01 43.1781 120.1 43.2159C120.191 43.2537 120.273 43.3091 120.342 43.3788L122.575 45.6114C122.68 45.7155 122.752 45.8485 122.781 45.9934C122.81 46.1383 122.795 46.2886 122.738 46.4251C122.682 46.5616 122.586 46.6782 122.462 46.7599C122.339 46.8416 122.194 46.8848 122.047 46.8839Z" fill="#A09CAD"/>
  <path d="M127.256 52.0929C127.158 52.0925 127.06 52.0726 126.97 52.0342C126.879 51.9959 126.797 51.94 126.728 51.8697L124.495 49.6371C124.357 49.4977 124.279 49.3091 124.279 49.1125C124.279 48.9159 124.357 48.7272 124.495 48.5878C124.564 48.5181 124.647 48.4627 124.737 48.4249C124.828 48.3871 124.925 48.3677 125.024 48.3677C125.122 48.3677 125.219 48.3871 125.31 48.4249C125.4 48.4627 125.483 48.5181 125.552 48.5878L127.785 50.8204C127.889 50.9245 127.961 51.0574 127.99 51.2024C128.019 51.3473 128.004 51.4976 127.948 51.6341C127.891 51.7706 127.795 51.8872 127.672 51.9689C127.549 52.0506 127.404 52.0938 127.256 52.0929Z" fill="#A09CAD"/>
  <path d="M119.814 52.0929C119.666 52.0938 119.521 52.0506 119.398 51.9689C119.275 51.8872 119.179 51.7706 119.122 51.6341C119.066 51.4976 119.051 51.3473 119.08 51.2024C119.109 51.0574 119.181 50.9245 119.286 50.8204L121.518 48.5878C121.587 48.5181 121.67 48.4627 121.76 48.4249C121.851 48.3871 121.948 48.3677 122.047 48.3677C122.145 48.3677 122.242 48.3871 122.333 48.4249C122.423 48.4627 122.506 48.5181 122.575 48.5878C122.713 48.7272 122.791 48.9159 122.791 49.1125C122.791 49.3091 122.713 49.4977 122.575 49.6371L120.342 51.8697C120.273 51.94 120.191 51.9959 120.101 52.0342C120.01 52.0726 119.912 52.0925 119.814 52.0929Z" fill="#A09CAD"/>
  <path d="M125.023 46.8839C124.876 46.8848 124.731 46.8416 124.608 46.7599C124.485 46.6782 124.388 46.5616 124.332 46.4251C124.275 46.2886 124.26 46.1383 124.289 45.9934C124.319 45.8485 124.39 45.7155 124.495 45.6114L126.728 43.3788C126.797 43.3091 126.879 43.2537 126.97 43.2159C127.06 43.1781 127.158 43.1587 127.256 43.1587C127.354 43.1587 127.451 43.1781 127.542 43.2159C127.633 43.2537 127.715 43.3091 127.784 43.3788C127.923 43.5183 128.001 43.7069 128.001 43.9035C128.001 44.1001 127.923 44.2887 127.784 44.4281L125.552 46.6607C125.483 46.731 125.401 46.7869 125.31 46.8253C125.219 46.8636 125.122 46.8835 125.023 46.8839Z" fill="#A09CAD"/>
  <path d="M122.047 96.0003C121.949 96.0009 121.852 95.9821 121.761 95.9451C121.67 95.9081 121.588 95.8535 121.518 95.7845L119.286 93.552C119.216 93.4826 119.161 93.4002 119.124 93.3095C119.086 93.2189 119.067 93.1217 119.067 93.0236C119.067 92.9255 119.086 92.8283 119.124 92.7376C119.161 92.647 119.216 92.5646 119.286 92.4952C119.355 92.4258 119.438 92.3708 119.528 92.3332C119.619 92.2957 119.716 92.2764 119.814 92.2764C119.912 92.2764 120.009 92.2957 120.1 92.3332C120.191 92.3708 120.273 92.4258 120.343 92.4952L122.575 94.7278C122.645 94.797 122.7 94.8793 122.738 94.97C122.776 95.0606 122.795 95.1579 122.795 95.2562C122.795 95.3544 122.776 95.4517 122.738 95.5424C122.7 95.633 122.645 95.7153 122.575 95.7845C122.506 95.8535 122.423 95.9081 122.332 95.9451C122.242 95.9821 122.145 96.0009 122.047 96.0003Z" fill="#A09CAD"/>
  <path d="M127.256 101.209C127.158 101.21 127.061 101.191 126.97 101.154C126.88 101.117 126.797 101.062 126.728 100.994L124.495 98.761C124.355 98.6208 124.276 98.4308 124.276 98.2326C124.276 98.0344 124.355 97.8443 124.495 97.7042C124.635 97.5641 124.825 97.4854 125.024 97.4854C125.222 97.4854 125.412 97.5641 125.552 97.7042L127.785 99.9368C127.854 100.006 127.91 100.088 127.947 100.179C127.985 100.27 128.005 100.367 128.005 100.465C128.005 100.563 127.985 100.661 127.947 100.751C127.91 100.842 127.854 100.924 127.785 100.994C127.715 101.062 127.633 101.117 127.542 101.154C127.451 101.191 127.354 101.21 127.256 101.209Z" fill="#A09CAD"/>
  <path d="M119.814 101.209C119.716 101.21 119.619 101.191 119.528 101.154C119.438 101.117 119.355 101.062 119.286 100.994C119.216 100.924 119.16 100.842 119.123 100.751C119.085 100.661 119.065 100.563 119.065 100.465C119.065 100.367 119.085 100.27 119.123 100.179C119.16 100.088 119.216 100.006 119.286 99.9368L121.518 97.7042C121.658 97.5641 121.848 97.4854 122.046 97.4854C122.245 97.4854 122.435 97.5641 122.575 97.7042C122.715 97.8443 122.794 98.0344 122.794 98.2326C122.794 98.4308 122.715 98.6208 122.575 98.761L120.342 100.994C120.273 101.062 120.19 101.117 120.1 101.154C120.009 101.191 119.912 101.21 119.814 101.209Z" fill="#A09CAD"/>
  <path d="M125.023 96.0003C124.925 96.0009 124.828 95.9821 124.738 95.9451C124.647 95.9081 124.565 95.8535 124.495 95.7845C124.425 95.7153 124.37 95.633 124.332 95.5424C124.294 95.4517 124.275 95.3544 124.275 95.2562C124.275 95.1579 124.294 95.0606 124.332 94.97C124.37 94.8793 124.425 94.797 124.495 94.7278L126.728 92.4952C126.797 92.4258 126.879 92.3708 126.97 92.3332C127.061 92.2957 127.158 92.2764 127.256 92.2764C127.354 92.2764 127.451 92.2957 127.542 92.3332C127.633 92.3708 127.715 92.4258 127.784 92.4952C127.854 92.5646 127.909 92.647 127.946 92.7376C127.984 92.8283 128.003 92.9255 128.003 93.0236C128.003 93.1217 127.984 93.2189 127.946 93.3095C127.909 93.4002 127.854 93.4826 127.784 93.552L125.552 95.7845C125.482 95.8535 125.4 95.9081 125.309 95.9451C125.218 95.9821 125.121 96.0009 125.023 96.0003Z" fill="#A09CAD"/>
  <path d="M45.7674 3.72105C45.6694 3.72161 45.5724 3.70284 45.4817 3.66581C45.391 3.62877 45.3086 3.5742 45.239 3.50523L43.0065 1.27267C42.8663 1.13254 42.7876 0.942479 42.7876 0.744301C42.7876 0.546123 42.8663 0.356062 43.0065 0.215929C43.1466 0.0757962 43.3367 -0.00292968 43.5348 -0.00292969C43.733 -0.00292969 43.9231 0.0757962 44.0632 0.215929L46.2958 2.44849C46.3655 2.51767 46.4209 2.59998 46.4587 2.69066C46.4964 2.78135 46.5159 2.87862 46.5159 2.97686C46.5159 3.0751 46.4964 3.17237 46.4587 3.26306C46.4209 3.35374 46.3655 3.43605 46.2958 3.50523C46.2262 3.5742 46.1438 3.62877 46.0531 3.66581C45.9624 3.70284 45.8653 3.72161 45.7674 3.72105Z" fill="#A09CAD"/>
  <path d="M50.9769 8.93052C50.8789 8.93108 50.7818 8.91231 50.6912 8.87528C50.6005 8.83824 50.518 8.78368 50.4485 8.7147L48.2159 6.48215C48.0758 6.34201 47.9971 6.15195 47.9971 5.95377C47.9971 5.7556 48.0758 5.56553 48.2159 5.4254C48.3561 5.28527 48.5461 5.20654 48.7443 5.20654C48.9425 5.20654 49.1325 5.28527 49.2727 5.4254L51.5052 7.65796C51.575 7.72714 51.6303 7.80945 51.6681 7.90014C51.7059 7.99082 51.7254 8.08809 51.7254 8.18633C51.7254 8.28457 51.7059 8.38184 51.6681 8.47253C51.6303 8.56321 51.575 8.64552 51.5052 8.7147C51.4357 8.78368 51.3532 8.83824 51.2626 8.87528C51.1719 8.91231 51.0748 8.93108 50.9769 8.93052Z" fill="#A09CAD"/>
  <path d="M43.5351 8.93052C43.4372 8.93108 43.3401 8.91231 43.2494 8.87528C43.1588 8.83824 43.0763 8.78368 43.0068 8.7147C42.937 8.64552 42.8816 8.56321 42.8439 8.47253C42.8061 8.38184 42.7866 8.28457 42.7866 8.18633C42.7866 8.08809 42.8061 7.99082 42.8439 7.90014C42.8816 7.80945 42.937 7.72714 43.0068 7.65796L45.2393 5.4254C45.3087 5.35602 45.3911 5.30097 45.4817 5.26342C45.5724 5.22587 45.6696 5.20654 45.7677 5.20654C45.8658 5.20654 45.963 5.22587 46.0536 5.26342C46.1443 5.30097 46.2267 5.35602 46.2961 5.4254C46.3654 5.49479 46.4205 5.57716 46.458 5.66782C46.4956 5.75848 46.5149 5.85565 46.5149 5.95377C46.5149 6.0519 46.4956 6.14907 46.458 6.23973C46.4205 6.33039 46.3654 6.41276 46.2961 6.48215L44.0635 8.7147C43.994 8.78368 43.9115 8.83824 43.8208 8.87528C43.7302 8.91231 43.6331 8.93108 43.5351 8.93052Z" fill="#A09CAD"/>
  <path d="M48.7441 3.72105C48.6462 3.72161 48.5491 3.70284 48.4584 3.66581C48.3677 3.62877 48.2853 3.5742 48.2157 3.50523C48.146 3.43605 48.0906 3.35374 48.0528 3.26306C48.0151 3.17237 47.9956 3.0751 47.9956 2.97686C47.9956 2.87862 48.0151 2.78135 48.0528 2.69066C48.0906 2.59998 48.146 2.51767 48.2157 2.44849L50.4483 0.215929C50.5884 0.0757962 50.7785 -0.00292969 50.9767 -0.00292969C51.1748 -0.00292969 51.3649 0.0757962 51.505 0.215929C51.6452 0.356062 51.7239 0.546123 51.7239 0.744301C51.7239 0.942479 51.6452 1.13254 51.505 1.27267L49.2725 3.50523C49.2029 3.5742 49.1205 3.62877 49.0298 3.66581C48.9391 3.70284 48.842 3.72161 48.7441 3.72105Z" fill="#A09CAD"/>
  <path d="M2.97667 80.0223C2.87873 80.0229 2.78165 80.0041 2.69098 79.9671C2.60031 79.93 2.51784 79.8755 2.4483 79.8065L0.215744 77.5739C0.146846 77.5046 0.0922892 77.4223 0.0551888 77.3318C0.0180884 77.2413 -0.000829153 77.1444 -0.000483632 77.0467C-0.000138112 76.9489 0.0194637 76.8521 0.0572025 76.7619C0.0949414 76.6717 0.150078 76.5898 0.219465 76.5209C0.288852 76.452 0.37113 76.3975 0.461601 76.3604C0.552072 76.3233 0.648965 76.3043 0.746747 76.3047C0.84453 76.305 0.941286 76.3246 1.03149 76.3624C1.1217 76.4001 1.20359 76.4553 1.27249 76.5246L3.50505 78.7572C3.64365 78.8966 3.72145 79.0852 3.72145 79.2819C3.72145 79.4785 3.64365 79.6671 3.50505 79.8065C3.43551 79.8755 3.35304 79.93 3.26237 79.9671C3.1717 80.0041 3.07461 80.0229 2.97667 80.0223Z" fill="#A09CAD"/>
  <path d="M8.18615 85.2318C8.08821 85.2324 7.99112 85.2136 7.90045 85.1765C7.80978 85.1395 7.72731 85.0849 7.65777 85.016L5.42522 82.7834C5.35632 82.714 5.30176 82.6317 5.26466 82.5413C5.22756 82.4508 5.20864 82.3539 5.20899 82.2561C5.20933 82.1583 5.22894 82.0616 5.26668 81.9714C5.30441 81.8812 5.35955 81.7993 5.42894 81.7304C5.49832 81.6615 5.5806 81.6069 5.67107 81.5698C5.76154 81.5327 5.85844 81.5138 5.95622 81.5142C6.054 81.5145 6.15076 81.5341 6.24097 81.5719C6.33117 81.6096 6.41306 81.6647 6.48196 81.7341L8.71452 83.9667C8.85312 84.1061 8.93092 84.2947 8.93092 84.4913C8.93092 84.6879 8.85312 84.8765 8.71452 85.016C8.64498 85.0849 8.56251 85.1395 8.47184 85.1765C8.38118 85.2136 8.28409 85.2324 8.18615 85.2318Z" fill="#A09CAD"/>
  <path d="M0.744288 85.2318C0.646348 85.2324 0.54926 85.2136 0.45859 85.1765C0.36792 85.1395 0.285452 85.0849 0.215916 85.016C0.0773102 84.8765 -0.000488281 84.6879 -0.000488281 84.4913C-0.000488281 84.2947 0.0773102 84.1061 0.215916 83.9667L2.44847 81.7341C2.58762 81.594 2.77673 81.5149 2.97421 81.5142C3.17169 81.5135 3.36136 81.5912 3.5015 81.7304C3.64163 81.8695 3.72075 82.0587 3.72145 82.2561C3.72214 82.4536 3.64436 82.6433 3.50522 82.7834L1.27266 85.016C1.20312 85.0849 1.12066 85.1395 1.02999 85.1765C0.939316 85.2136 0.842228 85.2324 0.744288 85.2318Z" fill="#A09CAD"/>
  <path d="M5.95376 80.0223C5.85582 80.0229 5.75873 80.0041 5.66806 79.9671C5.57739 79.93 5.49492 79.8755 5.42539 79.8065C5.28678 79.6671 5.20898 79.4785 5.20898 79.2819C5.20898 79.0852 5.28678 78.8966 5.42539 78.7572L7.65795 76.5246C7.72684 76.4553 7.80873 76.4001 7.89894 76.3624C7.98915 76.3246 8.08591 76.305 8.18369 76.3047C8.28147 76.3043 8.37836 76.3233 8.46883 76.3604C8.5593 76.3975 8.64158 76.452 8.71097 76.5209C8.78036 76.5898 8.83549 76.6717 8.87323 76.7619C8.91097 76.8521 8.93057 76.9489 8.93092 77.0467C8.93126 77.1444 8.91235 77.2413 8.87525 77.3318C8.83815 77.4223 8.78359 77.5046 8.71469 77.5739L6.48213 79.8065C6.4126 79.8755 6.33013 79.93 6.23946 79.9671C6.14879 80.0041 6.0517 80.0229 5.95376 80.0223Z" fill="#A09CAD"/>
  <path d="M2.97667 35.3714C2.87873 35.372 2.78165 35.3532 2.69098 35.3162C2.60031 35.2792 2.51784 35.2246 2.4483 35.1556L0.215744 32.9231C0.076598 32.7829 -0.00118144 32.5933 -0.000483626 32.3958C0.000214184 32.1983 0.0793321 32.0092 0.219465 31.87C0.359598 31.7309 0.549267 31.6531 0.746747 31.6538C0.944227 31.6545 1.13334 31.7336 1.27249 31.8738L3.50505 34.1063C3.64365 34.2458 3.72145 34.4344 3.72145 34.631C3.72145 34.8276 3.64365 35.0162 3.50505 35.1556C3.43551 35.2246 3.35304 35.2792 3.26237 35.3162C3.1717 35.3532 3.07461 35.372 2.97667 35.3714Z" fill="#A09CAD"/>
  <path d="M8.18615 40.5804C8.08821 40.581 7.99112 40.5622 7.90045 40.5252C7.80978 40.4881 7.72731 40.4336 7.65777 40.3646L5.42522 38.1321C5.35632 38.0627 5.30176 37.9804 5.26466 37.8899C5.22756 37.7994 5.20864 37.7025 5.20899 37.6048C5.20933 37.507 5.22894 37.4102 5.26668 37.32C5.30441 37.2298 5.35955 37.1479 5.42894 37.079C5.49832 37.0101 5.5806 36.9556 5.67107 36.9185C5.76154 36.8814 5.85844 36.8625 5.95622 36.8628C6.054 36.8631 6.15076 36.8827 6.24097 36.9205C6.33117 36.9582 6.41306 37.0134 6.48196 37.0827L8.71452 39.3153C8.85312 39.4547 8.93092 39.6434 8.93092 39.84C8.93092 40.0366 8.85312 40.2252 8.71452 40.3646C8.64498 40.4336 8.56251 40.4881 8.47184 40.5252C8.38118 40.5622 8.28409 40.581 8.18615 40.5804Z" fill="#A09CAD"/>
  <path d="M0.744288 40.5804C0.646348 40.581 0.54926 40.5622 0.45859 40.5252C0.36792 40.4881 0.285452 40.4336 0.215916 40.3646C0.0773102 40.2252 -0.000488281 40.0366 -0.000488281 39.84C-0.000488281 39.6434 0.0773102 39.4547 0.215916 39.3153L2.44847 37.0827C2.51737 37.0134 2.59926 36.9582 2.68947 36.9205C2.77968 36.8827 2.87643 36.8631 2.97421 36.8628C3.072 36.8625 3.16889 36.8814 3.25936 36.9185C3.34983 36.9556 3.43211 37.0101 3.5015 37.079C3.57088 37.1479 3.62602 37.2298 3.66376 37.32C3.7015 37.4102 3.7211 37.507 3.72145 37.6048C3.72179 37.7025 3.70287 37.7994 3.66577 37.8899C3.62867 37.9804 3.57412 38.0627 3.50522 38.1321L1.27266 40.3646C1.20312 40.4336 1.12066 40.4881 1.02999 40.5252C0.939316 40.5622 0.842228 40.581 0.744288 40.5804Z" fill="#A09CAD"/>
  <path d="M5.95376 35.3714C5.85582 35.372 5.75873 35.3532 5.66806 35.3162C5.57739 35.2792 5.49492 35.2246 5.42539 35.1556C5.28678 35.0162 5.20898 34.8276 5.20898 34.631C5.20898 34.4344 5.28678 34.2458 5.42539 34.1063L7.65795 31.8738C7.72684 31.8044 7.80873 31.7492 7.89894 31.7115C7.98915 31.6738 8.08591 31.6542 8.18369 31.6538C8.28147 31.6535 8.37836 31.6724 8.46883 31.7095C8.5593 31.7466 8.64158 31.8011 8.71097 31.87C8.78036 31.9389 8.83549 32.0208 8.87323 32.111C8.91097 32.2012 8.93057 32.298 8.93092 32.3958C8.93126 32.4936 8.91235 32.5905 8.87525 32.6809C8.83815 32.7714 8.78359 32.8537 8.71469 32.9231L6.48213 35.1556C6.4126 35.2246 6.33013 35.2792 6.23946 35.3162C6.14879 35.3532 6.0517 35.372 5.95376 35.3714Z" fill="#A09CAD"/>
  <path d="M96.1119 12.9266C96.014 12.9272 95.9169 12.9084 95.8262 12.8714C95.7356 12.8343 95.6531 12.7798 95.5835 12.7108L93.351 10.4782C93.2812 10.409 93.2259 10.3267 93.1881 10.2361C93.1503 10.1454 93.1309 10.0481 93.1309 9.94985C93.1309 9.85161 93.1503 9.75434 93.1881 9.66366C93.2259 9.57297 93.2812 9.49066 93.351 9.42148C93.4904 9.28288 93.679 9.20508 93.8756 9.20508C94.0722 9.20508 94.2609 9.28288 94.4003 9.42148L96.6329 11.654C96.7374 11.7577 96.8088 11.89 96.8381 12.0342C96.8674 12.1785 96.8533 12.3281 96.7975 12.4643C96.7418 12.6006 96.6469 12.7172 96.5248 12.7995C96.4028 12.8817 96.2591 12.926 96.1119 12.9266Z" fill="#A09CAD"/>
  <path d="M101.321 18.1361C101.223 18.1366 101.126 18.1179 101.035 18.0808C100.945 18.0438 100.862 17.9892 100.793 17.9203L98.56 15.6877C98.4902 15.6185 98.4349 15.5362 98.3971 15.4455C98.3593 15.3548 98.3398 15.2576 98.3398 15.1593C98.3398 15.0611 98.3593 14.9638 98.3971 14.8731C98.4349 14.7824 98.4902 14.7001 98.56 14.631C98.6994 14.4923 98.888 14.4146 99.0846 14.4146C99.2812 14.4146 99.4699 14.4923 99.6093 14.631L101.842 16.8635C101.946 16.9672 102.018 17.0995 102.047 17.2437C102.076 17.3879 102.062 17.5376 102.007 17.6738C101.951 17.81 101.856 17.9266 101.734 18.0089C101.612 18.0912 101.468 18.1355 101.321 18.1361Z" fill="#A09CAD"/>
  <path d="M93.8794 18.1361C93.7316 18.1369 93.5868 18.0938 93.4637 18.012C93.3405 17.9303 93.2444 17.8138 93.1877 17.6773C93.1311 17.5407 93.1163 17.3904 93.1454 17.2455C93.1745 17.1006 93.2461 16.9676 93.351 16.8635L95.5836 14.631C95.723 14.4923 95.9116 14.4146 96.1082 14.4146C96.3048 14.4146 96.4934 14.4923 96.6329 14.631C96.7026 14.7001 96.758 14.7824 96.7958 14.8731C96.8335 14.9638 96.853 15.0611 96.853 15.1593C96.853 15.2576 96.8335 15.3548 96.7958 15.4455C96.758 15.5362 96.7026 15.6185 96.6329 15.6877L94.4003 17.9203C94.2617 18.0577 94.0746 18.1352 93.8794 18.1361Z" fill="#A09CAD"/>
  <path d="M99.0884 12.9266C98.9405 12.9275 98.7958 12.8843 98.6726 12.8026C98.5495 12.7209 98.4534 12.6043 98.3967 12.4678C98.34 12.3313 98.3253 12.181 98.3544 12.036C98.3835 11.8911 98.455 11.7581 98.56 11.654L100.793 9.42148C100.932 9.28288 101.121 9.20508 101.317 9.20508C101.514 9.20508 101.702 9.28288 101.842 9.42148C101.912 9.49066 101.967 9.57297 102.005 9.66366C102.043 9.75434 102.062 9.85161 102.062 9.94985C102.062 10.0481 102.043 10.1454 102.005 10.2361C101.967 10.3267 101.912 10.409 101.842 10.4782L99.6093 12.7108C99.4707 12.8483 99.2836 12.9258 99.0884 12.9266Z" fill="#A09CAD"/>
</svg>