<svg xmlns="http://www.w3.org/2000/svg" width="65" height="60" viewBox="0 0 65 60" fill="none">
  <path d="M56.875 0.75H8.125C5.97081 0.752258 3.9055 1.60901 2.38225 3.13225C0.859008 4.6555 0.00225835 6.72081 0 8.875V41.375C0.00225835 43.5292 0.859008 45.5945 2.38225 47.1178C3.9055 48.641 5.97081 49.4977 8.125 49.5H24.1617C23.7031 51.7816 22.3336 54.1185 19.976 56.476C19.7488 56.7033 19.5941 56.9928 19.5314 57.308C19.4687 57.6232 19.5009 57.9499 19.6239 58.2468C19.7468 58.5437 19.9551 58.7975 20.2223 58.9761C20.4895 59.1546 20.8036 59.25 21.125 59.25H43.875C44.1964 59.25 44.5105 59.1546 44.7777 58.9761C45.0449 58.7975 45.2532 58.5437 45.3761 58.2468C45.4991 57.9499 45.5313 57.6232 45.4686 57.308C45.4059 56.9928 45.2512 56.7033 45.024 56.476C42.6664 54.1185 41.2969 51.7816 40.8383 49.5H56.875C59.0292 49.4977 61.0945 48.641 62.6178 47.1178C64.141 45.5945 64.9977 43.5292 65 41.375V8.875C64.9977 6.72081 64.141 4.6555 62.6178 3.13225C61.0945 1.60901 59.0292 0.752258 56.875 0.75ZM8.125 4H56.875C58.1675 4.00142 59.4066 4.51549 60.3206 5.42942C61.2345 6.34335 61.7486 7.58251 61.75 8.875V39.75H3.25V8.875C3.25142 7.58251 3.76549 6.34335 4.67942 5.42942C5.59335 4.51549 6.83251 4.00142 8.125 4ZM40.3235 56H24.6765C26.1339 54.0986 27.0965 51.8651 27.4778 49.5H37.5222C37.9035 51.8651 38.8661 54.0986 40.3235 56ZM56.875 46.25H8.125C7.1201 46.2469 6.14078 45.9329 5.3215 45.351C4.50223 44.7691 3.88317 43.9478 3.54932 43H61.4507C61.1168 43.9478 60.4978 44.7691 59.6785 45.351C58.8592 45.9329 57.8799 46.2469 56.875 46.25Z" fill="#17374C"/>
  <path d="M28.7358 33.1657C28.9383 33.2335 29.1521 33.2607 29.3651 33.2458C29.5781 33.2309 29.786 33.1741 29.977 33.0787C30.168 32.9834 30.3384 32.8513 30.4783 32.69C30.6182 32.5287 30.725 32.3415 30.7924 32.1389L37.2924 12.6389C37.4272 12.2303 37.3944 11.7849 37.2013 11.4003C37.0083 11.0158 36.6707 10.7234 36.2624 10.5873C35.8542 10.4513 35.4087 10.4826 35.0236 10.6744C34.6384 10.8662 34.3449 11.2028 34.2075 11.6106L27.7075 31.1106C27.5716 31.5195 27.6036 31.9656 27.7964 32.351C27.9892 32.7363 28.3271 33.0293 28.7358 33.1657Z" fill="#FF972C"/>
  <path d="M21.7757 28.0501C21.9464 28.1781 22.1406 28.2711 22.3473 28.324C22.554 28.3769 22.7691 28.3885 22.9803 28.3583C23.1915 28.3281 23.3946 28.2565 23.5782 28.1478C23.7617 28.039 23.922 27.8952 24.05 27.7244C24.178 27.5537 24.271 27.3595 24.3239 27.1528C24.3768 26.9461 24.3884 26.731 24.3582 26.5198C24.328 26.3086 24.2564 26.1055 24.1477 25.9219C24.0389 25.7384 23.8951 25.5781 23.7244 25.4501L18.9573 21.8751L23.7244 18.3001C23.8951 18.1721 24.0389 18.0118 24.1477 17.8283C24.2564 17.6447 24.328 17.4416 24.3582 17.2304C24.3884 17.0192 24.3768 16.8041 24.3239 16.5974C24.271 16.3907 24.178 16.1965 24.05 16.0257C23.922 15.855 23.7617 15.7112 23.5782 15.6024C23.3946 15.4937 23.1915 15.4221 22.9803 15.3919C22.7691 15.3617 22.554 15.3733 22.3473 15.4262C22.1406 15.4791 21.9464 15.5721 21.7757 15.7001L15.2757 20.5751C15.0737 20.7263 14.9097 20.9224 14.7967 21.1481C14.6838 21.3737 14.625 21.6225 14.625 21.8748C14.625 22.1271 14.6838 22.3759 14.7967 22.6015C14.9097 22.8271 15.0737 23.0233 15.2757 23.1744L21.7757 28.0501Z" fill="#FF972C"/>
  <path d="M40.9488 27.7244C41.0768 27.8953 41.2373 28.0392 41.421 28.1479C41.6046 28.2567 41.808 28.3283 42.0193 28.3584C42.2306 28.3886 42.4458 28.3769 42.6526 28.3238C42.8594 28.2708 43.0537 28.1776 43.2245 28.0494L49.7245 23.1744C49.9264 23.0233 50.0904 22.8271 50.2034 22.6015C50.3163 22.3759 50.3751 22.1271 50.3751 21.8748C50.3751 21.6225 50.3163 21.3737 50.2034 21.1481C50.0904 20.9224 49.9264 20.7263 49.7245 20.5751L43.2245 15.7001C43.0537 15.5721 42.8595 15.4791 42.6528 15.4262C42.4461 15.3733 42.231 15.3617 42.0198 15.3919C41.8086 15.4221 41.6055 15.4937 41.4219 15.6024C41.2384 15.7112 41.0781 15.855 40.9501 16.0257C40.8222 16.1965 40.7291 16.3907 40.6762 16.5974C40.6233 16.8041 40.6117 17.0192 40.6419 17.2304C40.6721 17.4416 40.7437 17.6447 40.8524 17.8283C40.9612 18.0118 41.105 18.1721 41.2758 18.3001L46.0429 21.8751L41.2758 25.4501C40.9312 25.7087 40.7033 26.0933 40.642 26.5197C40.5808 26.946 40.6911 27.3793 40.9488 27.7244Z" fill="#FF972C"/>
</svg>