<svg xmlns="http://www.w3.org/2000/svg" width="116" height="24" viewBox="0 0 116 24" fill="none">
<g clip-path="url(#clip0_100_15508)">
<path d="M7.61723 22.8239H3.26942V11.9853H0.307617V8.45651H3.26931V5.94551C3.26931 2.96998 4.57927 0.835938 8.91531 0.835938C9.83239 0.835938 11.2722 1.02078 11.2722 1.02078V4.29748H9.75992C8.21908 4.29748 7.61746 4.76617 7.61746 6.06194V8.45651H11.2145L10.8942 11.9853H7.61735L7.61723 22.8239ZM17.5934 8.17451C17.53 8.17451 17.4648 8.17682 17.4003 8.17844C13.3688 8.17844 11.5243 11.211 11.5243 15.5157C11.5243 20.9386 13.9169 23.109 17.4318 23.109C19.4429 23.109 20.7642 22.2625 21.5672 20.6829V22.8254H25.7026V8.45801H21.5672V10.6675C20.9115 9.24598 19.5533 8.19136 17.5934 8.17451ZM18.6449 11.5695C20.3382 11.5695 21.3545 12.7506 21.3545 14.7595L21.3584 16.8114C21.3584 18.1654 20.519 19.7496 18.6449 19.7496C15.7637 19.7496 15.8407 16.6386 15.8407 15.6024C15.8407 12.117 17.3758 11.5695 18.6449 11.5695ZM27.3727 15.6424C27.3727 13.8966 27.2892 8.18386 34.7319 8.18386C37.7196 8.18386 38.9671 9.13382 38.9671 9.13382L37.9644 12.2438C37.9644 12.2438 36.7185 11.5577 35.095 11.5577C33.0157 11.5577 31.6889 12.7631 31.6889 14.884L31.6912 16.4048C31.6912 18.4427 32.9714 19.8031 35.0993 19.8031C36.5783 19.8031 37.9415 19.1106 37.9415 19.1106L38.9416 22.1556C38.9416 22.1556 37.8009 23.1115 34.7528 23.1115C27.6661 23.1115 27.3728 17.9861 27.3728 15.6424H27.3727ZM63.2144 8.17844C67.246 8.17844 69.1197 11.211 69.1197 15.5157C69.1197 20.9386 66.7269 23.109 63.212 23.109C61.2009 23.109 59.7143 22.2626 58.9112 20.6829V22.8254L54.8279 22.8237V1.27278L59.1633 0.894668V10.4729C59.7891 8.79713 61.8453 8.17844 63.2144 8.17844ZM61.9989 11.5695C60.3057 11.5695 59.1633 12.7506 59.1633 14.7595L59.1593 16.8114C59.1568 18.1654 59.9504 19.7496 61.9989 19.7496C64.8801 19.7496 64.8031 16.6386 64.8031 15.6024C64.8031 12.117 63.2682 11.5695 61.9989 11.5695ZM46.4895 8.19032C41.9168 8.19032 39.5027 10.6834 39.5027 15.114V15.9371C39.5027 21.6876 42.8928 23.1681 46.9345 23.1681C50.863 23.1681 52.6412 22.0692 52.6412 22.0692L51.83 19.1431C51.83 19.1431 49.7383 20.0331 47.4543 20.0331C45.0867 20.0331 44.0684 19.4296 43.8074 17.1542H52.9879V14.8067C52.9879 10.0007 50.2785 8.19021 46.4894 8.19021L46.4895 8.19032ZM46.5997 11.1204C48.1825 11.1204 49.2082 12.091 49.1519 14.3421H43.8153C43.9079 11.9729 45.014 11.1204 46.5997 11.1204ZM77.7644 8.17059C73.0686 8.17059 70.5965 10.8168 70.5965 15.559C70.5965 22.0656 74.8578 23.1129 77.7722 23.1129C82.0387 23.1129 84.8772 20.8159 84.8772 15.6181C84.8772 10.2081 81.6856 8.17059 77.7644 8.17059ZM77.7053 11.5812C79.7701 11.5812 80.5883 13.1266 80.5883 14.8856V16.398C80.5883 18.5289 79.4435 19.7614 77.6975 19.7614C76.0645 19.7614 74.9169 18.6085 74.9169 16.398V14.8856C74.9169 12.5281 76.2825 11.5812 77.7053 11.5812ZM93.5142 8.17059C88.8183 8.17059 86.3462 10.8168 86.3462 15.559C86.3462 22.0656 90.6076 23.1129 93.522 23.1129C97.7883 23.1129 100.627 20.8159 100.627 15.6181C100.627 10.2081 97.4353 8.17059 93.5142 8.17059ZM93.4551 11.5812C95.5199 11.5812 96.338 13.1266 96.338 14.8856V16.398C96.338 18.5289 95.1931 19.7614 93.4472 19.7614C91.8143 19.7614 90.6667 18.6085 90.6667 16.398V14.8856C90.6667 12.5281 92.0323 11.5812 93.4551 11.5812ZM102.265 22.8239V1.27278L106.613 0.894784V15.3397L110.927 8.45663H115.519L111.019 15.5854L115.692 22.8239H111.087L106.613 15.7953V22.8239H102.265Z" fill="#1877F2"/>
</g>
<defs>
<clipPath id="clip0_100_15508">
<rect width="115.5" height="22.5" fill="white" transform="translate(0.25 0.75)"/>
</clipPath>
</defs>
</svg>