<svg xmlns="http://www.w3.org/2000/svg" width="99" height="33" viewBox="0 0 99 33" fill="none">
  <g clip-path="url(#clip0_100_15515)">
    <path d="M0.921387 25.946L1.11289 25.6778L10.1696 8.49297L10.1888 8.31103L6.19646 0.811828C5.8618 0.183654 4.92009 0.342411 4.8104 1.04563L0.921387 25.946Z" fill="#FFC24A"/>
    <path d="M1.03418 25.7415L1.17896 25.4592L10.1399 8.45436L6.15852 0.924661C5.82748 0.302982 4.98706 0.461469 4.87764 1.15739L1.03418 25.7415Z" fill="#FFA712"/>
    <path d="M1.03418 25.7415L1.17896 25.4592L10.1399 8.45436L6.15852 0.924661C5.82748 0.302982 4.98706 0.461469 4.87764 1.15739L1.03418 25.7415Z" fill="black"/>
    <path d="M13.0994 13.9835L16.0721 10.9392L13.0986 5.26271C12.8163 4.72537 12.0282 4.72384 11.7489 5.26271L10.1602 8.29353V8.55151L13.0994 13.9835Z" fill="#F4BD62"/>
    <path d="M13.0464 13.8566L15.9363 10.8968L13.0464 5.39381C12.772 4.87063 12.1053 4.81669 11.8338 5.33969L10.2368 8.41561L10.189 8.57292L13.0464 13.8566Z" fill="#FFA50E"/>
    <path d="M13.0464 13.8566L15.9363 10.8968L13.0464 5.39381C12.772 4.87063 12.1053 4.81669 11.8338 5.33969L10.2368 8.41561L10.189 8.57292L13.0464 13.8566Z" fill="black"/>
    <path d="M10.1684 8.27588L0.921387 25.946L1.00816 25.8587L1.32351 25.7306L12.9126 14.1846L13.0593 13.785L10.1684 8.27588Z" fill="#F6820C"/>
    <path d="M13.4704 31.7687L23.9588 25.9192L20.9645 7.47251C20.8707 6.89539 20.1628 6.66718 19.7497 7.08103L0.921387 25.9459L11.3496 31.7683C11.6737 31.9493 12.0388 32.0443 12.41 32.0444C12.7812 32.0444 13.1463 31.9496 13.4705 31.7688" fill="#FDE068"/>
    <path d="M23.8648 25.8704L20.8924 7.56441C20.7995 6.99162 20.2105 6.75466 19.8006 7.16535L1.03857 25.9101L11.3522 31.674C12.0062 32.0392 12.8027 32.0394 13.457 31.6746L23.8648 25.8704Z" fill="#FCCA3F"/>
    <path d="M13.4704 31.5964C12.8119 31.964 12.0085 31.9639 11.3495 31.5958L1.00528 25.8572L0.921387 25.9459L11.3496 31.7683C12.0086 32.1363 12.8112 32.1363 13.4705 31.7688L23.9589 25.9193L23.9332 25.7612L13.4704 31.5964Z" fill="#EEAB37"/>
    <path d="M31.9002 23.2369H30.1152V9.3449H38.2152V11.0519H31.9002V15.6119H37.6052V17.2819H31.9002V23.2369ZM41.3532 11.3429C41.1072 11.5889 40.8102 11.7129 40.4612 11.7129C40.2951 11.7158 40.1302 11.6844 39.9767 11.6207C39.8233 11.5571 39.6845 11.4625 39.5692 11.3429C39.4501 11.2272 39.3558 11.0884 39.2922 10.9351C39.2286 10.7817 39.197 10.6169 39.1992 10.4509C39.1964 10.2848 39.2277 10.1199 39.2914 9.96639C39.355 9.81293 39.4496 9.67422 39.5692 9.5589C39.6849 9.43977 39.8237 9.34551 39.9771 9.28189C40.1304 9.21827 40.2952 9.18662 40.4612 9.1889C40.6273 9.18603 40.7923 9.2174 40.9457 9.28106C41.0992 9.34472 41.2379 9.43929 41.3532 9.5589C41.4724 9.67458 41.5666 9.81336 41.6302 9.96674C41.6939 10.1201 41.7255 10.2849 41.7232 10.4509C41.7261 10.617 41.6947 10.7819 41.6311 10.9354C41.5674 11.0889 41.4728 11.2276 41.3532 11.3429ZM41.3532 23.2369H39.5682V13.7299H41.3532V23.2369ZM45.2062 23.2369H43.4202V13.7299H45.1272V15.2819H45.2042C45.3842 14.7649 45.7572 14.3379 46.3202 14.0019C46.8832 13.6659 47.4202 13.4969 47.9602 13.4969C48.5002 13.4969 48.9372 13.5749 49.3002 13.7299L48.6202 15.3999C48.3872 15.2999 48.0702 15.2639 47.6702 15.2639C47.0232 15.2639 46.4502 15.5189 45.9532 16.0299C45.4562 16.5409 45.2062 17.2099 45.2062 18.0379V23.2369ZM53.9942 23.5369C52.5582 23.5369 51.3912 23.0589 50.4922 22.1009C49.5932 21.1429 49.1422 19.9349 49.1422 18.4729C49.1422 17.0889 49.5782 15.8989 50.4422 14.9029C51.3062 13.9069 52.4422 13.4089 53.7892 13.4089C55.1892 13.4089 56.3272 13.8689 57.1752 14.7869C58.0232 15.7049 58.4452 16.9339 58.4452 18.4739L58.4252 18.8039H50.9252C50.9772 19.7609 51.2972 20.5179 51.8852 21.0739C52.1581 21.3419 52.481 21.5535 52.8357 21.6966C53.1904 21.8398 53.5698 21.9115 53.9522 21.9079C55.2322 21.9079 56.0992 21.3649 56.5522 20.2779L58.1522 20.9379C57.8522 21.6749 57.3302 22.2929 56.6192 22.7909C55.9082 23.2889 55.0342 23.5379 53.9992 23.5379L53.9942 23.5369ZM56.5542 17.3369C56.5142 16.7939 56.2662 16.2769 55.8072 15.7849C55.3482 15.2929 54.6652 15.0479 53.7602 15.0479C53.1002 15.0479 52.5282 15.2549 52.0432 15.6679C51.5582 16.0809 51.2252 16.6379 51.0432 17.3379H56.5432L56.5542 17.3369ZM64.9172 23.5369C64.1922 23.5369 63.5422 23.3819 62.9672 23.0709C62.3922 22.7599 61.9612 22.3729 61.6672 21.9069H61.6002V23.2269H59.8932V9.3449H61.6782V13.7299L61.6002 15.0499H61.6782C61.9632 14.5839 62.3932 14.1959 62.9782 13.8859C63.5632 13.5759 64.2042 13.4199 64.9282 13.4199C66.1582 13.4199 67.2282 13.9049 68.1102 14.8749C68.9922 15.8449 69.4502 17.0479 69.4502 18.4749C69.4502 19.9019 69.0042 21.1149 68.1102 22.0749C67.2162 23.0349 66.1572 23.5299 64.9282 23.5299L64.9172 23.5369ZM64.6172 21.9069C65.4452 21.9069 66.1572 21.5929 66.7512 20.9669C67.3452 20.3409 67.6432 19.5089 67.6432 18.4739C67.6432 17.4389 67.3452 16.6079 66.7512 15.9809C66.1572 15.3539 65.4442 15.0409 64.6172 15.0409C64.2141 15.033 63.8139 15.112 63.444 15.2724C63.074 15.4329 62.7429 15.6711 62.4732 15.9709C61.8852 16.6009 61.5902 17.4259 61.5902 18.4739C61.5902 19.5219 61.8842 20.3559 62.4732 20.9769C63.0622 21.5979 63.7762 21.9089 64.6172 21.9089V21.9069ZM74.1302 23.5369C73.1302 23.5369 72.2772 23.2369 71.5982 22.6639C70.9192 22.0909 70.5782 21.3119 70.5782 20.3639C70.5782 19.3289 70.9782 18.5179 71.7812 17.9289C72.5842 17.3399 73.5732 17.0459 74.7512 17.0459C75.7992 17.0459 76.6592 17.2399 77.3312 17.6279V17.3559C77.3312 16.6559 77.0912 16.0979 76.6132 15.6779C76.1352 15.2579 75.5462 15.0479 74.8472 15.0479C74.3292 15.0479 73.8602 15.1709 73.4402 15.4179C73.0406 15.6395 72.7342 15.9977 72.5772 16.4269L70.9472 15.7289C71.1672 15.1589 71.6002 14.6329 72.2472 14.1489C72.8942 13.6649 73.7472 13.4209 74.8072 13.4209C76.0232 13.4209 77.0322 13.7769 77.8342 14.4879C78.6362 15.1989 79.0372 16.2019 79.0372 17.4949V23.2379H77.3402V21.9179H77.2622C76.5502 23.0039 75.5092 23.5479 74.1382 23.5479L74.1302 23.5369ZM74.4302 21.9069C75.1672 21.9069 75.8372 21.6319 76.4382 21.0819C77.0392 20.5319 77.3402 19.8819 77.3402 19.1319C76.8362 18.7179 76.0802 18.5119 75.0702 18.5119C74.2032 18.5119 73.5502 18.6999 73.1102 19.0749C72.6702 19.4499 72.4502 19.8899 72.4502 20.3949C72.4502 20.8609 72.6502 21.2289 73.0522 21.5009C73.4542 21.7729 73.9122 21.9089 74.4302 21.9089V21.9069ZM84.2302 23.5369C83.1702 23.5369 82.2932 23.2769 81.6002 22.7609C80.9251 22.2653 80.3984 21.5944 80.0772 20.8209L81.6772 20.1609C82.1812 21.3609 83.0422 21.9459 84.2572 21.9459C84.8132 21.9459 85.2692 21.8229 85.6252 21.5759C85.9812 21.3289 86.1592 21.0059 86.1592 20.6059C86.1592 19.9859 85.7262 19.5659 84.8592 19.3459L82.9392 18.8799C82.3312 18.7249 81.7552 18.4299 81.2122 17.9969C80.6692 17.5639 80.4002 16.9999 80.4002 16.2519C80.4002 15.4119 80.7722 14.7289 81.5162 14.2049C82.2602 13.6809 83.1432 13.4189 84.1662 13.4189C85.0062 13.4189 85.7662 13.6189 86.4162 13.9909C87.0662 14.3629 87.5482 14.9189 87.8332 15.6309L86.2812 16.2709C85.9312 15.4309 85.2072 15.0109 84.1082 15.0109C83.5782 15.0109 83.1312 15.1109 82.7682 15.3409C82.4052 15.5709 82.2252 15.8579 82.2252 16.2329C82.2252 16.7759 82.6452 17.1449 83.4852 17.3389L85.3672 17.7849C86.2592 17.9919 86.9192 18.3479 87.3472 18.8519C87.7752 19.3559 87.9872 19.9259 87.9872 20.5589C87.9872 21.4129 87.6372 22.1239 86.9392 22.6929C86.2412 23.2619 85.3412 23.5469 84.2422 23.5469L84.2302 23.5369ZM93.7372 23.5369C92.3012 23.5369 91.1332 23.0589 90.2352 22.1009C89.3372 21.1429 88.8852 19.9349 88.8852 18.4729C88.8852 17.0889 89.3212 15.8989 90.1852 14.9029C91.0492 13.9069 92.1852 13.4089 93.5322 13.4089C94.9322 13.4089 96.0702 13.8689 96.9182 14.7869C97.7662 15.7049 98.1882 16.9339 98.1882 18.4739V18.8039H90.6882C90.7382 19.7609 91.0602 20.5179 91.6482 21.0739C91.9209 21.3418 92.2438 21.5534 92.5983 21.6965C92.9527 21.8396 93.332 21.9114 93.7142 21.9079C94.9942 21.9079 95.8612 21.3649 96.3142 20.2779L97.9142 20.9379C97.6142 21.6749 97.0922 22.2929 96.3812 22.7909C95.6702 23.2889 94.7962 23.5379 93.7612 23.5379L93.7372 23.5369ZM96.2972 17.3369C96.2572 16.7939 96.0092 16.2769 95.5502 15.7849C95.0912 15.2929 94.4082 15.0479 93.5032 15.0479C92.874 15.0368 92.2628 15.2579 91.7862 15.6689C91.3012 16.0829 90.9682 16.6389 90.7862 17.3389H96.2862L96.2972 17.3369Z" fill="#63666A"/>
  </g>
  <defs>
    <clipPath id="clip0_100_15515">
      <rect width="99" height="33" fill="white"/>
    </clipPath>
  </defs>
</svg>