<svg xmlns="http://www.w3.org/2000/svg" width="72" height="24" viewBox="0 0 72 24" fill="none">
<path d="M71.8835 11.9994H69.1193C67.3399 11.9994 66.3865 13.332 66.3865 15.5527V23.5804H61.144V11.9986H58.9193C57.1399 11.9986 56.1873 13.3312 56.1873 15.5519V23.5795H50.944V7.71581H56.1873V10.1273C57.0457 8.25529 58.2212 7.71581 59.9693 7.71581H66.3873V10.1273C67.2457 8.25529 68.4212 7.71581 70.1693 7.71581H71.8843L71.8835 11.9994ZM49.7999 16.8852H38.8696C39.1554 18.6623 40.2673 19.6776 42.1418 19.6776C43.5396 19.6776 44.5251 19.1059 44.8432 18.0914L49.4818 19.3918C48.3385 22.152 45.5099 23.834 42.1418 23.834C36.454 23.834 33.8485 19.4232 33.8485 15.6485C33.8485 11.9366 36.136 7.49439 41.8238 7.49439C47.861 7.49439 49.8627 11.9994 49.8627 15.3312C49.8666 15.85 49.8457 16.3686 49.7999 16.8852ZM44.716 13.8078C44.5887 12.443 43.6032 11.1749 41.8246 11.1749C40.1715 11.1749 39.1876 11.9036 38.8696 13.8078H44.716ZM24.6984 23.5795H29.3048L35.0562 7.71742H29.7823L26.9859 16.9489L24.1259 7.71662H18.8826L24.6984 23.5795ZM3.21868 23.5795H8.42979V11.9994H13.3881V23.5804H18.567V7.71662H8.42979V6.73349C8.42979 5.65454 9.19229 4.98866 10.4001 4.98866H13.3873V0.705078H9.54255C5.76062 0.705078 3.21868 3.02159 3.21868 6.41544V7.71662H0.263672V12.0002H3.21868V23.5795Z" fill="#003912"/>
</svg>