<svg xmlns="http://www.w3.org/2000/svg" width="120" height="60" viewBox="0 0 120 60" fill="none">
<path d="M23.6201 15.834L26.2151 19.474L39.3431 15.834M9.98212 44.166L17.0821 37.223L12.8081 32.636M22.5451 15.833L18.7491 19.256L25.1331 19.494M7.80012 15.834L9.16312 18.628L16.6761 19.096M11.8131 30.32L17.3631 19.966L1.24512 19.096M12.4601 30.976L17.7031 36.608L23.4861 30.938L25.2811 20.378L18.2331 20.018" fill="#29B2FE"/>
<path d="M34.7149 29.1129H33.2769L32.0169 37.0589C31.9839 37.2669 31.7869 37.4369 31.5769 37.4369H28.7019C28.4939 37.4369 28.3519 37.2669 28.3839 37.0589L30.1489 25.9149C30.5959 23.0969 32.0189 22.4719 33.9669 22.4719C34.5719 22.4719 35.2069 22.5289 35.7019 22.6239C35.9219 22.6619 36.0719 22.7939 36.0389 23.0019L35.7539 24.7999C35.7209 25.0079 35.5269 25.1599 35.2999 25.1599H34.5059C34.0329 25.1599 33.8709 25.3599 33.7809 25.9169L33.7009 26.4169H35.1389C35.3469 26.4169 35.4889 26.5869 35.4569 26.7969L35.1509 28.7269C35.1169 28.9349 34.9209 29.1049 34.7109 29.1049L34.7149 29.1129ZM41.8909 29.2449H41.6269C40.8129 29.2449 40.0199 29.3589 39.3829 29.6799L38.2199 37.0199C38.1869 37.2199 38.0029 37.4359 37.7749 37.4359H34.9379C34.7109 37.4359 34.5549 37.2279 34.5879 37.0199L36.2059 26.8049C36.2389 26.6049 36.3799 26.4249 36.6459 26.4249H39.3699C39.6349 26.4249 39.7329 26.5199 39.6879 26.8049L39.6159 27.2589C40.6079 26.3589 41.3039 26.2749 42.3159 26.2749C42.6359 26.2749 42.6819 26.3509 42.6339 26.6549L42.2679 28.9629C42.2329 29.1899 42.1479 29.2469 41.9019 29.2469L41.8909 29.2449ZM51.3959 32.9529H45.5129L45.5079 32.9909C45.3479 33.9939 45.6679 34.6179 47.0479 34.6179L50.6659 34.4659C50.9719 34.4459 51.0659 34.5029 51.0299 34.7859L50.7599 36.4889C50.7119 36.7919 50.6149 36.9239 50.2979 37.0189C49.0239 37.4169 47.6979 37.6059 46.0999 37.6059C43.5459 37.6059 41.3949 36.2619 41.9669 32.6489L42.1649 31.3989C42.6919 28.0689 44.9089 26.2529 48.0109 26.2529C51.3109 26.2529 52.5109 28.3529 52.0389 31.3979L51.8589 32.5339C51.8189 32.7789 51.6219 32.9489 51.3949 32.9489L51.3959 32.9529ZM48.6399 30.8999C48.8199 29.7649 48.4739 29.0839 47.5279 29.0839C46.6199 29.0839 46.0209 29.7659 45.8409 30.8999L45.8309 30.9569H48.6309L48.6399 30.8999ZM61.8679 32.9619H55.9849L55.9799 32.9999C55.8199 34.0029 56.1399 34.6269 57.5199 34.6269L61.1379 34.4749C61.4439 34.4549 61.5379 34.5119 61.5029 34.7949L61.2329 36.4979C61.1849 36.8009 61.0879 36.9329 60.7709 37.0279C59.4969 37.4259 58.1709 37.6149 56.5729 37.6149C54.0189 37.6149 51.8679 36.2709 52.4399 32.6579L52.6379 31.4079C53.1659 28.0779 55.3829 26.2619 58.4849 26.2619C61.7849 26.2619 62.9849 28.3619 62.5129 31.4069L62.3329 32.5429C62.2929 32.7879 62.0959 32.9579 61.8689 32.9579L61.8679 32.9619ZM59.0999 30.8999C59.2799 29.7649 58.9339 29.0839 57.9879 29.0839C57.0799 29.0839 56.4799 29.7659 56.3009 30.8999L56.2909 30.9569H59.0909L59.0999 30.8999ZM65.6969 37.4459H62.8499C62.7989 37.4436 62.7489 37.4307 62.7031 37.4081C62.6573 37.3854 62.6167 37.3536 62.5839 37.3145C62.551 37.2754 62.5265 37.23 62.5121 37.181C62.4976 37.132 62.4935 37.0806 62.4999 37.0299L64.6999 23.1999C64.7329 22.9919 64.9679 22.8219 65.1759 22.8219H68.0329C68.2409 22.8219 68.3829 22.9919 68.3509 23.1999L66.1509 37.0299C66.1179 37.2379 65.9149 37.4459 65.7069 37.4459H65.6969ZM75.7509 37.4459H73.1209C72.9129 37.4459 72.7709 37.2759 72.8029 37.0679L72.8659 36.6709C72.0629 37.2009 71.0519 37.6169 70.0109 37.6169C68.5169 37.6169 66.9079 36.7849 67.3109 34.2309L67.3469 34.0039C67.7069 31.7339 69.5469 30.9199 72.7169 30.9199H73.5309L73.6179 30.3719C73.7649 29.4449 73.4879 29.2749 72.5429 29.2749L69.2299 29.4069C68.9059 29.4269 68.8379 29.2549 68.8739 29.0269L69.1739 27.1919C69.2189 26.9079 69.3859 26.8139 69.6239 26.7379C70.2779 26.5379 71.9469 26.2839 73.1579 26.2839C75.9009 26.2839 77.7499 27.2679 77.2579 30.3709L76.2099 37.0709C76.1769 37.2789 75.9799 37.4489 75.7699 37.4489L75.7509 37.4459ZM73.3329 32.8859H72.4059C71.4599 32.8859 71.0339 33.1889 70.9079 33.9829L70.8779 34.1829C70.7759 34.8269 71.1809 35.0159 71.7109 35.0159C72.1687 35.0052 72.6205 34.9089 73.0429 34.7319L73.3429 32.8969L73.3329 32.8859ZM86.6759 37.4459H83.8399C83.6129 37.4459 83.4569 37.2379 83.4899 37.0299L84.5059 30.6159C84.6659 29.6129 84.3939 29.2919 83.5419 29.2919C83.1069 29.2919 82.5419 29.4619 82.0619 29.6889L80.8999 37.0199C80.8669 37.2279 80.6829 37.4359 80.4549 37.4359H77.6179C77.3909 37.4359 77.2349 37.2279 77.2679 37.0199L78.8849 26.8039C78.9179 26.5959 79.1149 26.4239 79.3249 26.4239H81.9549C82.1629 26.4239 82.3049 26.5939 82.2729 26.8039L82.2029 27.2389C83.3249 26.4819 84.4179 26.2739 85.4779 26.2739C88.4479 26.2739 88.4959 28.3539 88.1399 30.6059L87.1299 37.0209C87.0969 37.2209 86.9119 37.4379 86.6849 37.4379L86.6759 37.4459ZM95.0679 37.3139C94.2023 37.5151 93.3165 37.6165 92.4279 37.6159C89.5329 37.6159 88.1999 35.7619 88.6919 32.6589L88.9169 31.2389C89.4169 28.1549 91.3319 26.2629 94.2169 26.2629C95.3329 26.2629 96.2519 26.4329 96.7609 26.5649C96.9979 26.6219 97.1149 26.7169 97.0759 26.9629L96.7379 29.1009C96.7019 29.3279 96.5619 29.4979 96.2839 29.4609L94.1299 29.3289C93.3169 29.3289 92.7629 29.8289 92.5299 31.2289L92.3049 32.6469C92.0829 34.0469 92.4789 34.5389 93.2919 34.5389C94.0249 34.5462 94.7576 34.5082 95.4859 34.4249C95.7859 34.3879 95.8659 34.5389 95.8259 34.7849L95.4899 36.9049C95.4499 37.1519 95.3029 37.2449 95.0469 37.3029L95.0679 37.3139ZM106.171 32.9639H100.288L100.282 33.0019C100.122 34.0049 100.442 34.6289 101.822 34.6289L105.44 34.4769C105.746 34.4569 105.84 34.5139 105.805 34.7969L105.535 36.4999C105.488 36.8029 105.391 36.9349 105.073 37.0299C103.8 37.4279 102.473 37.6169 100.876 37.6169C98.3219 37.6169 96.1699 36.2729 96.7419 32.6599L96.9399 31.4099C97.4669 28.0799 99.6839 26.2639 102.787 26.2639C106.087 26.2639 107.287 28.3639 106.814 31.4089L106.634 32.5449C106.594 32.7899 106.397 32.9599 106.171 32.9599V32.9639ZM103.413 30.9019C103.593 29.7669 103.247 29.0859 102.301 29.0859C101.393 29.0859 100.794 29.7679 100.614 30.9019L100.604 30.9589H103.404L103.413 30.9019ZM112.119 26.4369L110.435 37.0319C110.402 37.2319 110.218 37.4479 109.99 37.4479H107.153C106.926 37.4479 106.77 37.2399 106.803 37.0319L107.921 30.0319L112.121 26.4469L112.119 26.4369Z" fill="#161F2B"/>
<path d="M113.097 26.426L112.517 30.061L118.757 26.426" fill="#29B2FE"/>
</svg>