<svg width="202" height="165" viewBox="0 0 202 165" fill="none" xmlns="http://www.w3.org/2000/svg">
<g filter="url(#filter0_b_851_13405)">
<rect x="1" y="1" width="200" height="163" rx="9" stroke="white" stroke-width="2"/>
<path fill-rule="evenodd" clip-rule="evenodd" d="M93.4814 100.56H46.3477V63.8438H93.4814V100.56Z" fill="white"/>
<mask id="mask0_851_13405" style="mask-type:luminance" maskUnits="userSpaceOnUse" x="46" y="63" width="48" height="38">
<path d="M93.4814 100.552H46.3477V63.8359H93.4814V100.552Z" fill="white"/>
</mask>
<g mask="url(#mask0_851_13405)">
<path fill-rule="evenodd" clip-rule="evenodd" d="M84.4 100.552V85.7901H93.8353V100.552H105.986V63.8359H93.8353V78.6874H84.4V63.8359H46.3008V100.552H84.4Z" fill="#B5B5B5"/>
<path fill-rule="evenodd" clip-rule="evenodd" d="M73.8359 70.8747V66.0078H79.5874V70.8747H73.8359Z" fill="white"/>
<path fill-rule="evenodd" clip-rule="evenodd" d="M79.5878 71.7578V76.6245H59.6783V82.3762H74.7211V93.8794H54.3691V89.0127H69.4117V87.2431H54.3691V71.7578H79.5878Z" fill="white"/>
<path fill-rule="evenodd" clip-rule="evenodd" d="M71.1821 66.0078V70.8747H53.0422V94.7661H75.6065V81.4931H66.758V77.5112H79.5884V98.748H49.0605V66.0078H71.1821Z" fill="white"/>
</g>
<path d="M99.5751 75.3061C99.5751 79.464 101.912 82.0412 106.448 82.969L110.331 83.7593C112.014 84.1029 112.667 84.8247 112.667 86.2335C112.667 87.8486 111.087 88.8451 108.578 88.8451C106.104 88.8451 104.73 87.8142 104.73 85.9587H99.1973C99.1973 90.735 102.874 93.7934 108.544 93.7934C114.385 93.7934 118.234 90.5976 118.234 85.6838C118.234 81.6634 116.069 79.4986 111.533 78.5709L107.719 77.7806C105.932 77.4025 105.142 76.6466 105.142 75.1003C105.142 73.4167 106.585 72.3857 108.853 72.3857C110.949 72.3857 112.289 73.4853 112.289 75.2722H117.821C117.821 70.4614 114.385 67.4375 108.922 67.4375C103.458 67.4375 99.5751 70.7018 99.5751 75.3064V75.3061Z" fill="white"/>
<path d="M133.351 72.7309C135.997 72.7309 138.334 73.8993 138.987 76.5795H144.829C144.244 71.0816 139.571 67.5078 133.489 67.5078C125.62 67.5078 120.5 73.0401 120.5 80.7029C120.5 88.5032 125.483 93.7262 132.596 93.7262C135.619 93.7262 138.369 92.6611 139.743 91.046L140.052 93.3484H144.829V78.7445H132.87V83.6238H139.605C139.365 86.2696 137.509 88.5376 133.317 88.5376C129.262 88.5376 126.376 85.9948 126.376 80.875C126.376 75.9612 128.747 72.7311 133.351 72.7311V72.7309Z" fill="white"/>
<path d="M155 67.9141H149.434V93.3422H155V67.9141Z" fill="white"/>
<path d="M99.7381 100.51V99.2005H101.107V100.51H101.648V97.4219H101.107V98.6977H99.7381V97.4219H99.1973V100.51H99.7381Z" fill="white"/>
<path d="M105.148 98.9564C105.148 98.0142 104.531 97.3594 103.648 97.3594C102.765 97.3594 102.152 98.0184 102.152 98.9564C102.152 99.8985 102.761 100.553 103.644 100.553C104.531 100.553 105.148 99.8944 105.148 98.9564ZM104.577 98.9564C104.577 99.6068 104.214 100.034 103.648 100.034C103.082 100.034 102.718 99.6154 102.718 98.9564C102.718 98.2974 103.082 97.879 103.648 97.879C104.214 97.879 104.577 98.2971 104.577 98.9564Z" fill="white"/>
<path d="M106.193 97.4219H105.652V100.51H107.486V100.012H106.193V97.4219Z" fill="white"/>
<path d="M109.035 100.51C109.931 100.51 110.547 99.8805 110.547 98.9723C110.547 98.0511 109.918 97.4219 109.005 97.4219H107.924V100.51H109.035L109.035 100.51ZM108.955 97.92C109.593 97.92 109.977 98.3172 109.977 98.972C109.977 99.6142 109.601 100.011 108.984 100.011H108.465V97.92H108.955Z" fill="white"/>
<path d="M111.592 97.4219H111.051V100.51H111.592V97.4219Z" fill="white"/>
<path d="M112.81 100.51V98.3218L114.263 100.51H114.796V97.4219H114.263V99.6103L112.814 97.4219H112.277V100.51H112.81Z" fill="white"/>
<path d="M116.83 97.8663C117.202 97.8663 117.515 98.0352 117.612 98.3987H118.182C118.093 97.7692 117.549 97.3594 116.843 97.3594C115.913 97.3594 115.301 98.0269 115.301 98.9649C115.301 99.9154 115.905 100.545 116.771 100.545C117.189 100.545 117.54 100.38 117.709 100.144L117.743 100.499H118.199V98.7623H116.763V99.2398H117.696V99.2524C117.696 99.7467 117.371 100.043 116.834 100.043C116.264 100.043 115.867 99.6664 115.867 98.9779C115.867 98.3103 116.218 97.8668 116.83 97.8668L116.83 97.8663Z" fill="white"/>
<path d="M118.605 98.2766C118.605 98.7499 118.88 99.0499 119.403 99.1638L119.893 99.2737C120.147 99.3286 120.252 99.4511 120.252 99.6581C120.252 99.9159 120.024 100.072 119.665 100.072C119.319 100.072 119.108 99.9156 119.103 99.6537H118.562C118.575 100.207 119.006 100.558 119.665 100.558C120.345 100.558 120.793 100.186 120.793 99.6112C120.793 99.1507 120.536 98.8805 120.007 98.7662L119.521 98.6606C119.264 98.6015 119.145 98.479 119.145 98.2593C119.145 98.0015 119.361 97.8409 119.695 97.8409C119.999 97.8409 120.189 97.9974 120.201 98.2634H120.742C120.726 97.7057 120.328 97.3594 119.703 97.3594C119.052 97.3594 118.605 97.7355 118.605 98.2761L118.605 98.2766Z" fill="white"/>
<path d="M123.645 99.4455C124.261 99.4455 124.667 99.0272 124.667 98.4316C124.667 97.8275 124.266 97.4219 123.645 97.4219H122.424V100.51H122.965V99.4455H123.645H123.645ZM123.539 97.9034C123.898 97.9034 124.101 98.0892 124.101 98.4272C124.101 98.7653 123.902 98.9637 123.53 98.9637H122.964V97.9034H123.539Z" fill="white"/>
<path d="M124.854 97.9203H125.758V100.51H126.298V97.9203H127.203V97.4219H124.854V97.9203Z" fill="white"/>
<path d="M128.799 100.549C129.53 100.549 130.096 100.118 130.214 99.4675H129.652C129.551 99.8097 129.23 100.029 128.812 100.029C128.246 100.029 127.882 99.6069 127.882 98.952C127.882 98.293 128.241 97.879 128.812 97.879C129.222 97.879 129.53 98.0901 129.636 98.4494H130.206C130.1 97.786 129.555 97.3594 128.825 97.3594C127.921 97.3594 127.316 97.9974 127.316 98.9564C127.316 99.9239 127.9 100.549 128.799 100.549L128.799 100.549Z" fill="white"/>
<path d="M132.382 97.4219H131.842V100.51H133.675V100.012H132.382V97.4219Z" fill="white"/>
<path d="M133.52 97.9203H134.424V100.51H134.964V97.9203H135.869V97.4219H133.52V97.9203Z" fill="white"/>
<path d="M137.393 100.51C138.288 100.51 138.905 99.8805 138.905 98.9723C138.905 98.0511 138.275 97.4219 137.363 97.4219H136.281V100.51H137.392L137.393 100.51ZM137.312 97.92C137.95 97.92 138.335 98.3172 138.335 98.972C138.335 99.6142 137.959 100.011 137.342 100.011H136.822V97.92H137.312Z" fill="white"/>
<path d="M139.489 100.555C139.674 100.555 139.831 100.403 139.831 100.221C139.831 100.035 139.674 99.8828 139.489 99.8828C139.303 99.8828 139.146 100.035 139.146 100.221C139.146 100.402 139.303 100.555 139.489 100.555Z" fill="white"/>
</g>
<defs>
<filter id="filter0_b_851_13405" x="-4" y="-4" width="210" height="173" filterUnits="userSpaceOnUse" color-interpolation-filters="sRGB">
<feFlood flood-opacity="0" result="BackgroundImageFix"/>
<feGaussianBlur in="BackgroundImageFix" stdDeviation="2"/>
<feComposite in2="SourceAlpha" operator="in" result="effect1_backgroundBlur_851_13405"/>
<feBlend mode="normal" in="SourceGraphic" in2="effect1_backgroundBlur_851_13405" result="shape"/>
</filter>
</defs>
</svg>
