<svg width="64" height="64" viewBox="0 0 64 64" fill="none" xmlns="http://www.w3.org/2000/svg">
<path d="M63.1627 17.0301C63.1622 15.7152 63.0299 14.4036 62.7677 13.1151C62.5053 11.7961 62.0593 10.5203 61.4427 9.32512C60.7983 8.16745 59.9974 7.10411 59.0627 6.16512C58.0986 5.22181 56.9788 4.45216 55.7527 3.89012C54.5426 3.27997 53.2484 2.85362 51.9127 2.62512C50.5877 2.37012 49.1327 2.37012 47.8077 2.24512H15.1227C14.1031 2.26172 13.0858 2.34691 12.0777 2.50012C11.0772 2.61789 10.0979 2.87366 9.16766 3.26012C8.90266 3.38512 8.50766 3.51512 8.24266 3.64012C7.36253 4.11189 6.52593 4.66071 5.74266 5.28012C5.47766 5.53512 5.21266 5.66012 4.94766 5.91012C3.97319 6.81396 3.1673 7.88397 2.56766 9.07012C1.91282 10.2485 1.46467 11.5304 1.24266 12.8601C1.04562 14.1577 0.913785 15.4643 0.847656 16.7751V46.9701C0.848068 48.285 0.980397 49.5966 1.24266 50.8851C1.50505 52.2042 1.95105 53.4799 2.56766 54.6751C3.21205 55.8328 4.01292 56.8961 4.94766 57.8351C5.91173 58.7784 7.03154 59.5481 8.25766 60.1101C9.46768 60.7203 10.7619 61.1466 12.0977 61.3751C13.4227 61.6301 14.8777 61.6301 16.2027 61.7551H47.8127C49.1897 61.7541 50.5638 61.6269 51.9177 61.3751C53.2534 61.1466 54.5476 60.7203 55.7577 60.1101C56.9576 59.5029 58.0708 58.7378 59.0677 57.8351C60.0421 56.9313 60.848 55.8613 61.4477 54.6751C62.1025 53.4967 62.5506 52.2148 62.7727 50.8851C62.9697 49.5875 63.1015 48.2809 63.1677 46.9701V17.0301H63.1627Z" fill="#F05138"/>
<path d="M42.498 48.2497C36.943 51.3147 29.308 51.6297 21.623 48.4847C15.6311 46.0535 10.5079 41.878 6.91797 36.4997C8.58633 37.7768 10.409 38.8385 12.343 39.6597C20.278 43.2097 28.208 42.9647 33.793 39.6597C25.843 33.8297 19.093 26.2497 14.063 20.0597C13.0704 19.0136 12.1843 17.8713 11.418 16.6497C17.498 21.9547 27.168 28.6497 30.608 30.5447C25.6963 25.5122 21.1828 20.1059 17.108 14.3747C23.8815 20.9572 31.335 26.8016 39.343 31.8097C39.698 31.9997 39.973 32.1597 40.193 32.3097C40.4277 31.7367 40.6297 31.1507 40.798 30.5547C42.653 24.1097 40.533 16.7847 35.903 10.7197C46.623 16.9047 52.998 28.5247 50.328 38.2547C50.258 38.5197 50.183 38.7547 50.103 39.0297L50.198 39.1397C55.493 45.4547 54.038 52.1397 53.373 50.8897C50.498 45.4997 45.183 47.1647 42.498 48.2497Z" fill="#FEFEFE"/>
</svg>
