<svg xmlns="http://www.w3.org/2000/svg" width="116" height="35" viewBox="0 0 116 35" fill="none">
<g clip-path="url(#clip0_100_15497)">
<path d="M31.7458 21.8896C29.8607 21.8896 28.0944 21.0915 26.4896 19.7923L26.8803 17.9582L26.8973 17.8902C27.2453 15.9374 28.3492 12.6596 31.7458 12.6596C34.293 12.6596 36.3649 14.7316 36.3649 17.2788C36.3563 19.8176 34.2846 21.8896 31.7458 21.8896ZM31.7458 7.98108C27.4066 7.98108 24.0443 10.8002 22.6773 15.4363C20.5884 12.303 19.0089 8.54154 18.0835 5.37427H13.4134V17.525C13.4134 19.9196 11.4604 21.8724 9.06583 21.8724C6.67129 21.8724 4.7185 19.9196 4.7185 17.525V5.37427H0.0479048V17.525C0.0309142 22.501 4.08124 26.5851 9.05699 26.5851C14.033 26.5851 18.0833 22.501 18.0833 17.525V15.4873C18.9917 17.3807 20.104 19.2911 21.4542 20.9895L18.5926 34.4393H23.3733L25.445 24.6831C27.2621 25.8463 29.351 26.5767 31.7455 26.5767C36.8656 26.5767 41.0349 22.3821 41.0349 17.2618C41.0349 12.1501 36.8658 7.98108 31.7458 7.98108Z" fill="#6FDA44"/>
<path d="M55.2916 8.5067L58.306 20.6575L61.6261 8.5067H65.5829L60.4798 26.0664H56.5228L53.3898 13.839L50.2649 26.0577H46.3081L41.2046 8.49831H45.1616L48.4815 20.6491L51.4959 8.49831H55.2914V8.50692L55.2916 8.5067ZM75.0505 7.98022C69.9135 7.98022 65.7528 12.1493 65.7528 17.2779C65.7528 22.4152 69.9219 26.5758 75.0505 26.5758C80.1878 26.5758 84.3568 22.4152 84.3568 17.2779C84.3568 12.1409 80.1878 7.98022 75.0505 7.98022ZM75.0505 22.7548C72.0278 22.7548 69.5823 20.3093 69.5823 17.2865C69.5823 14.2636 72.0362 11.8183 75.0505 11.8183C78.0735 11.8183 80.5188 14.2636 80.5188 17.2865C80.5188 20.3009 78.0735 22.7548 75.0505 22.7548ZM95.6585 12.4381C93.001 12.4381 90.8527 14.5948 90.8527 17.2439V26.0577H86.8701V8.5067H90.8527V11.2068C90.8527 11.2068 92.5508 8.49809 96.0407 8.49809H97.2633V12.4381H95.6585ZM109.024 16.5987C111.851 15.0023 113.77 11.971 113.77 8.49809H109.788C109.788 11.4275 107.41 13.805 104.481 13.805H103.946V0.0324707H99.9637V26.0575H103.946V17.7874H104.422C104.812 17.7874 105.322 18.0423 105.551 18.3563L111.206 26.0577H115.978L109.024 16.5987Z" fill="black"/>
</g>
<defs>
<clipPath id="clip0_100_15497">
<rect width="116" height="34.6608" fill="white"/>
</clipPath>
</defs>
</svg>